
<svg width="387" height="34" viewBox="0 0 387 34" fill="none" xmlns="http://www.w3.org/2000/svg">
<g clip-path="url(#clip0_2_841)">
<path fill-rule="evenodd" clip-rule="evenodd" d="M4.75087 10.0804C6.59475 10.0804 8.08954 11.5752 8.08954 13.4191V10.0804H11.4282C13.2721 10.0804 14.7669 11.5752 14.7669 13.4191C14.7669 15.263 13.2721 16.7577 11.4282 16.7577C13.2721 16.7577 14.7669 18.2525 14.7669 20.0964C14.7669 21.012 14.3983 21.8415 13.8015 22.4446L13.789 22.4572L13.7779 22.4682C13.1746 23.0659 12.3445 23.4351 11.4282 23.4351C10.5181 23.4351 9.69306 23.0709 9.0908 22.4804C9.08299 22.4727 9.07518 22.465 9.0674 22.4572C9.06009 22.4499 9.05281 22.4426 9.04556 22.4352C8.45425 21.8328 8.08954 21.0072 8.08954 20.0964C8.08954 21.9403 6.59475 23.4351 4.75087 23.4351C2.90698 23.4351 1.41221 21.9403 1.41221 20.0964V16.7577H4.75087C2.90698 16.7577 1.41221 15.263 1.41221 13.4191C1.41221 11.5752 2.90698 10.0804 4.75087 10.0804ZM7.4218 13.4191C7.4218 14.8942 6.22599 16.09 4.75087 16.09V10.7481C6.22599 10.7481 7.4218 11.944 7.4218 13.4191ZM14.0991 20.0964C14.0991 18.6213 12.9033 17.4255 11.4282 17.4255C9.95308 17.4255 8.75727 18.6213 8.75727 20.0964H14.0991ZM2.07994 17.4255V20.0964C2.07994 21.5715 3.27576 22.7673 4.75087 22.7673C6.22599 22.7673 7.4218 21.5715 7.4218 20.0964V17.4255H2.07994ZM8.75727 16.09V10.7481H11.4282C12.9033 10.7481 14.0991 11.944 14.0991 13.4191C14.0991 14.8942 12.9033 16.09 11.4282 16.09H8.75727Z" fill="#263238"/>
</g>
<g clip-path="url(#clip1_2_841)">
<path fill-rule="evenodd" clip-rule="evenodd" d="M66.1776 13.4062L62.8437 16.7066C63.5105 17.3668 64.2723 17.9231 65.1028 18.3584C65.3324 18.9612 65.6922 19.5266 66.1823 20.0117C68.0262 21.8371 71.0158 21.8371 72.8597 20.0117C73.3498 19.5266 73.7096 18.9612 73.9392 18.3584C74.7697 17.9231 75.5315 17.3668 76.1983 16.7066L72.8671 13.4089C72.8646 13.4064 72.8622 13.404 72.8597 13.4015C71.0158 11.5761 68.0262 11.5761 66.1823 13.4015C66.1808 13.4031 66.1792 13.4046 66.1776 13.4062ZM72.5407 18.9538C71.5691 19.2784 70.5492 19.4447 69.521 19.4447C68.4928 19.4447 67.4729 19.2784 66.5014 18.9538C66.6066 19.0921 66.7229 19.2248 66.8501 19.3507C68.3252 20.811 70.7168 20.811 72.1919 19.3507C72.3191 19.2248 72.4354 19.0921 72.5407 18.9538ZM66.9185 13.9964C67.169 14.1602 67.4354 14.3004 67.7141 14.4147C68.287 14.6496 68.9009 14.7705 69.521 14.7705C70.1411 14.7705 70.755 14.6496 71.3279 14.4147C71.6066 14.3004 71.873 14.1602 72.1235 13.9964C70.6668 12.6243 68.3752 12.6243 66.9185 13.9964Z" fill="#3B4158"/>
</g>
<g clip-path="url(#clip2_2_841)">
<path d="M140.299 15.2608C140.301 15.2469 140.301 15.2328 140.299 15.2189C140.301 15.2076 140.301 15.196 140.299 15.1846L140.163 14.2055C140.144 14.0884 140.091 13.9789 140.012 13.8893L139.988 13.8626L139.946 13.8207L137.591 11.832L137.657 11.8968C137.603 11.8334 137.535 11.7827 137.458 11.7484C137.381 11.7141 137.298 11.6971 137.214 11.6987H136.499C136.382 11.6964 136.269 11.7327 136.176 11.8016C136.079 11.7331 135.962 11.697 135.842 11.6987H135.127C135.033 11.6972 134.941 11.72 134.859 11.7648C134.777 11.8097 134.708 11.8749 134.661 11.9539C134.587 12.0668 134.559 12.2029 134.583 12.3349L134.672 12.9521C134.613 12.9192 134.546 12.9021 134.478 12.9026H131.015C130.891 12.9034 130.77 12.939 130.666 13.0054C130.565 13.0673 130.484 13.1557 130.432 13.2607L130.164 13.0359C130.059 12.9402 129.919 12.8883 129.776 12.8912H124.343C124.218 12.8934 124.096 12.9275 123.989 12.9902C123.843 13.0742 123.736 13.2109 123.69 13.3712L121.965 19.0287C121.932 19.1219 121.929 19.2225 121.956 19.3175C121.982 19.4124 122.037 19.4976 122.112 19.5621C122.132 19.5785 122.153 19.5938 122.175 19.6078C122.175 19.6078 122.14 19.5849 122.12 19.5659L124.475 21.5584C124.575 21.6483 124.705 21.6986 124.84 21.6993H130.316C130.441 21.6962 130.563 21.6607 130.67 21.5965C130.73 21.5642 130.784 21.5216 130.829 21.4708L130.848 21.4441L130.879 21.406L130.903 21.3641L131.159 21.5813C131.257 21.6676 131.385 21.7151 131.517 21.7146H137.004C137.129 21.7105 137.25 21.6751 137.357 21.6117C137.416 21.5774 137.47 21.5351 137.517 21.486L137.536 21.4593L137.567 21.4212C137.584 21.3971 137.598 21.3716 137.61 21.345C137.623 21.3219 137.633 21.2977 137.641 21.2727L139.215 16.1066V16.0609C139.217 16.0432 139.217 16.0253 139.215 16.0076V15.9733C139.217 15.9619 139.217 15.9503 139.215 15.939C139.217 15.9149 139.217 15.8907 139.215 15.8666H139.72C139.764 15.8705 139.808 15.8705 139.852 15.8666H139.887C139.916 15.8583 139.943 15.8467 139.969 15.8323H140.008L140.078 15.779L140.109 15.7561L140.163 15.6875V15.6647L140.202 15.5999C140.2 15.5873 140.2 15.5744 140.202 15.5618C140.2 15.5556 140.2 15.5489 140.202 15.5428C140.21 15.5204 140.217 15.4975 140.221 15.4742C140.22 15.4667 140.22 15.4588 140.221 15.4513C140.22 15.44 140.22 15.4284 140.221 15.417C140.221 15.417 140.299 15.2684 140.299 15.2608Z" fill="black"/>
<path d="M129.935 13.3254C129.956 13.3437 129.97 13.3678 129.976 13.3943C129.983 13.4209 129.98 13.4487 129.97 13.474L128.249 19.1277C128.227 19.1894 128.182 19.2411 128.124 19.2725C128.077 19.3036 128.022 19.322 127.965 19.3258H122.493C122.447 19.3236 122.402 19.3047 122.369 19.2725C122.349 19.2545 122.335 19.2311 122.329 19.2053C122.323 19.1796 122.324 19.1525 122.334 19.1277L124.059 13.474C124.079 13.4115 124.122 13.3585 124.18 13.3254C124.228 13.2965 124.283 13.2796 124.339 13.2759H129.811C129.857 13.2763 129.901 13.2941 129.935 13.3254ZM127.079 17.9886L128.109 14.6131H125.225L124.199 17.9886H127.079ZM135.158 13.3826C135.177 13.4039 135.2 13.4207 135.226 13.4319C135.252 13.4431 135.281 13.4484 135.309 13.4474H136.021C136.048 13.4476 136.074 13.4411 136.098 13.4284C136.122 13.4158 136.142 13.3974 136.157 13.375C136.169 13.3575 136.178 13.3377 136.183 13.3167C136.188 13.2958 136.188 13.2741 136.184 13.2531L136.044 12.2473C136.031 12.2007 136.007 12.1577 135.974 12.1216C135.955 12.1003 135.932 12.0834 135.906 12.0722C135.88 12.061 135.851 12.0557 135.822 12.0568H135.111C135.084 12.0565 135.058 12.063 135.034 12.0757C135.01 12.0884 134.99 12.1068 134.975 12.1292C134.948 12.1825 134.936 12.2168 134.948 12.2473L135.092 13.2531C135.099 13.302 135.122 13.3474 135.158 13.3826ZM137.416 12.2397C137.402 12.1931 137.378 12.1501 137.346 12.1139C137.328 12.0927 137.305 12.0759 137.28 12.0646C137.254 12.0534 137.226 12.0481 137.198 12.0492H136.483C136.456 12.0484 136.43 12.0548 136.407 12.0675C136.384 12.0802 136.364 12.0989 136.351 12.1216C136.325 12.1553 136.314 12.1978 136.32 12.2397L136.464 13.2454C136.473 13.2939 136.496 13.3388 136.53 13.375C136.549 13.3958 136.572 13.4124 136.598 13.4236C136.624 13.4348 136.653 13.4403 136.681 13.4397H137.396C137.423 13.4401 137.449 13.4336 137.472 13.4209C137.495 13.4082 137.515 13.3897 137.528 13.3673C137.542 13.3503 137.551 13.3305 137.556 13.3094C137.561 13.2883 137.561 13.2665 137.556 13.2454L137.416 12.2397ZM134.532 13.7636L134.462 13.2683H131.015C130.961 13.2712 130.909 13.2883 130.864 13.3178C130.835 13.3331 130.81 13.3543 130.791 13.38C130.771 13.4056 130.758 13.4351 130.751 13.4664L130.464 14.4112C130.452 14.4348 130.448 14.4613 130.452 14.4872C130.456 14.513 130.469 14.537 130.487 14.556C130.52 14.5862 130.562 14.6038 130.607 14.6055H134.797L133.767 17.981H129.589C129.535 17.9822 129.483 17.998 129.438 18.0267C129.383 18.0609 129.343 18.1138 129.325 18.1753L129.033 19.1201C129.024 19.1444 129.021 19.1707 129.026 19.1962C129.031 19.2218 129.043 19.2455 129.061 19.2649C129.092 19.2971 129.136 19.3162 129.181 19.3182H134.668C134.725 19.3134 134.78 19.2951 134.828 19.2649C134.885 19.2333 134.928 19.1816 134.948 19.1201L136.526 13.9541H134.75C134.722 13.9546 134.694 13.9495 134.668 13.939C134.642 13.9285 134.618 13.9129 134.598 13.8931C134.566 13.8585 134.543 13.8166 134.532 13.7712V13.7636Z" fill="white"/>
</g>
<g clip-path="url(#clip3_2_841)">
<path d="M199.394 13.2226C199.394 13.2339 199.394 13.248 199.391 13.2565C199.376 13.3665 199.376 13.4766 199.385 13.5895C199.391 13.6177 199.397 13.6459 199.42 13.6685C199.459 13.7108 199.517 13.7024 199.541 13.6516C199.553 13.6262 199.553 13.6008 199.547 13.5754C199.517 13.4681 199.511 13.3552 199.509 13.2452C199.509 13.2395 199.509 13.231 199.509 13.2226C199.541 13.2198 199.57 13.2169 199.597 13.2169C199.617 13.2141 199.635 13.2113 199.65 13.2028C199.694 13.1802 199.694 13.1323 199.647 13.1097C199.629 13.1012 199.606 13.0984 199.585 13.0984C199.511 13.1012 199.438 13.1012 199.364 13.1012C199.338 13.1012 199.312 13.104 199.285 13.1069C199.27 13.1097 199.253 13.1097 199.241 13.1182C199.22 13.1266 199.209 13.1407 199.209 13.1605C199.212 13.1802 199.22 13.1915 199.241 13.2C199.253 13.2085 199.267 13.2113 199.282 13.2113C199.317 13.2141 199.356 13.2198 199.394 13.2226ZM200.203 13.3524C200.203 13.3552 200.205 13.3581 200.205 13.3581C200.217 13.4343 200.229 13.5076 200.238 13.581C200.241 13.6064 200.244 13.629 200.261 13.6488C200.3 13.6967 200.358 13.6911 200.385 13.6403C200.397 13.6149 200.4 13.5895 200.394 13.5613C200.376 13.4766 200.367 13.3919 200.35 13.3101C200.338 13.2593 200.323 13.2113 200.308 13.1661C200.3 13.1379 200.279 13.1182 200.244 13.1153C200.208 13.1097 200.182 13.1266 200.167 13.152C200.15 13.1746 200.135 13.1972 200.123 13.2226C200.103 13.2677 200.085 13.3129 200.061 13.3552C200.058 13.3665 200.055 13.375 200.05 13.3835C200.047 13.3778 200.044 13.375 200.044 13.375C200.005 13.3044 199.97 13.2339 199.932 13.1661C199.926 13.1605 199.923 13.1548 199.92 13.1492C199.903 13.1238 199.882 13.1097 199.85 13.1097C199.82 13.1125 199.797 13.1294 199.782 13.1548C199.776 13.1661 199.776 13.1746 199.773 13.1859C199.761 13.2762 199.747 13.3665 199.735 13.4568C199.729 13.5076 199.726 13.5584 199.726 13.6092C199.723 13.6205 199.726 13.6346 199.732 13.6459C199.738 13.6685 199.756 13.6826 199.779 13.6854C199.808 13.6883 199.829 13.6798 199.838 13.6572C199.847 13.6403 199.85 13.6262 199.853 13.6121C199.864 13.5613 199.873 13.5133 199.882 13.4653C199.888 13.4371 199.891 13.4145 199.9 13.3835C199.906 13.3947 199.911 13.4032 199.917 13.4117C199.944 13.4455 199.97 13.4794 200.003 13.5076C200.035 13.5302 200.061 13.5274 200.088 13.502C200.094 13.4963 200.097 13.4935 200.103 13.4879C200.129 13.4484 200.161 13.4089 200.188 13.3693C200.194 13.3637 200.197 13.3581 200.203 13.3524Z" fill="#3A3B7B"/>
<path d="M193.427 13.278C193.407 13.3317 193.403 13.3703 193.412 13.4024C193.422 13.4461 193.45 13.4604 193.486 13.4493C193.832 13.3673 194.589 13.6 194.869 13.6649C194.936 13.6785 194.989 13.5965 194.944 13.5231C194.878 13.4519 194.121 13.1473 193.832 13.1307C193.719 13.1246 193.517 13.0967 193.427 13.278Z" fill="#3A3B7B"/>
<path d="M196.387 12.2921C196.424 12.3125 196.444 12.3319 196.455 12.3536C196.47 12.3821 196.462 12.4019 196.436 12.4119C196.208 12.5189 195.904 12.9793 195.782 13.1381C195.752 13.1746 195.683 13.1534 195.673 13.0933C195.675 13.0254 195.944 12.5257 196.095 12.3897C196.154 12.3365 196.251 12.2323 196.387 12.2921Z" fill="#3A3B7B"/>
<path d="M194.569 12.0654C194.613 12.0334 194.659 12.0222 194.682 12.043C195.027 12.3258 195.21 12.7735 195.323 13.1834C195.327 13.193 195.327 13.2067 195.324 13.221C195.322 13.2332 195.313 13.2461 195.298 13.2561C195.283 13.2671 195.269 13.2705 195.263 13.261C195.112 13.0639 194.249 12.297 194.569 12.0654Z" fill="#3A3B7B"/>
<path d="M187.274 16.9676C187.357 16.9086 187.446 16.8595 187.541 16.8214C187.641 16.7941 187.747 16.7986 187.843 16.8343C187.94 16.8699 188.021 16.9347 188.076 17.0189C188.125 17.1029 188.144 17.1998 188.13 17.2952C188.117 17.3905 188.072 17.479 188.001 17.5474C187.946 17.6029 187.884 17.6512 187.817 17.6911C187.515 17.8784 187.21 18.0554 186.905 18.2427C186.843 18.2895 186.777 18.3316 186.707 18.3684C186.602 18.4188 186.482 18.4323 186.367 18.4066C186.252 18.3808 186.15 18.3174 186.079 18.2273C186.026 18.1635 185.981 18.0937 185.946 18.0195C185.657 17.4371 185.358 16.8573 185.08 16.2647C184.951 16.0081 184.847 15.7131 184.745 15.4283C184.701 15.3456 184.693 15.2497 184.722 15.1609C184.75 15.0722 184.814 14.9977 184.899 14.9533C184.984 14.9088 185.083 14.8979 185.176 14.9229C185.27 14.9479 185.349 15.0068 185.398 15.0871C185.547 15.2778 185.679 15.4804 185.793 15.6926C186.082 16.2057 186.357 16.7188 186.635 17.2165C186.651 17.244 186.669 17.2705 186.689 17.296C186.898 17.2116 187.095 17.1012 187.274 16.9676Z" fill="#3A3B7B"/>
<path d="M190.259 16.7886C189.599 17.53 188.492 17.3428 187.936 16.3884C187.54 15.7111 187.471 14.5926 188.332 13.8871C188.515 13.7394 188.735 13.6387 188.97 13.5946C189.259 13.5549 189.553 13.6038 189.811 13.7341C190.069 13.8645 190.277 14.0698 190.406 14.3206C190.876 15.1416 190.81 16.1883 190.259 16.7886ZM189.992 15.0595C189.921 14.8578 189.781 14.6855 189.593 14.572C189.487 14.4995 189.358 14.4642 189.228 14.4722C189.098 14.4801 188.975 14.5308 188.88 14.6157C188.497 14.9415 188.417 15.7137 188.695 16.1729C188.731 16.2478 188.783 16.3143 188.848 16.3679C188.913 16.4215 188.989 16.4607 189.072 16.483C189.154 16.5052 189.241 16.5099 189.325 16.4967C189.41 16.4834 189.49 16.4526 189.561 16.4064C189.768 16.2522 189.92 16.0399 189.996 15.799C190.072 15.558 190.067 15.3005 189.984 15.0621L189.992 15.0595Z" fill="#3A3B7B"/>
<path d="M192.953 15.3827C192.886 15.3967 192.816 15.3975 192.748 15.3852C192.68 15.3728 192.615 15.3476 192.558 15.3109C192.507 15.2832 192.464 15.2452 192.431 15.1995C192.397 15.1538 192.375 15.1016 192.365 15.0466C192.356 14.9917 192.359 14.9353 192.374 14.8817C192.39 14.828 192.418 14.7783 192.456 14.7362C192.522 14.6516 192.617 14.5911 192.723 14.5644C193.002 14.4867 193.289 14.4394 193.579 14.4233C193.642 14.4162 193.707 14.4213 193.768 14.4385C193.83 14.4556 193.887 14.4844 193.937 14.5231C193.987 14.5618 194.028 14.6097 194.058 14.6639C194.089 14.7181 194.107 14.7776 194.113 14.8389C194.197 15.1397 194.206 15.4551 194.14 15.7599C193.9 16.745 193.071 17.0836 192.141 16.7681C191.88 16.6837 191.651 16.5265 191.483 16.3166C191.26 16.0637 191.101 15.7641 191.021 15.4418C190.955 15.1547 190.963 14.8568 191.042 14.573C191.121 14.2892 191.269 14.0276 191.475 13.8101C191.67 13.5737 191.924 13.3877 192.213 13.2688C192.395 13.1722 192.609 13.1448 192.812 13.1918C192.858 13.204 192.899 13.2278 192.932 13.2607C192.966 13.2936 192.989 13.3344 193 13.3789C193.011 13.4234 193.01 13.47 192.996 13.5138C192.982 13.5576 192.956 13.597 192.921 13.628C192.854 13.686 192.782 13.7375 192.705 13.7819C192.467 13.9271 192.26 14.1143 192.095 14.3335C191.987 14.4753 191.913 14.6381 191.877 14.8105C191.841 14.983 191.846 15.1608 191.889 15.3314C191.95 15.5642 192.085 15.7731 192.274 15.9292C192.862 16.4423 193.627 15.9471 193.493 15.2468C193.298 15.293 193.127 15.3417 192.953 15.3827Z" fill="#3A3B7B"/>
<path d="M196.546 16.8297C195.677 17.3428 194.688 16.8297 194.472 15.7522C194.314 14.9825 194.613 13.905 195.661 13.4945C195.884 13.4091 196.126 13.3791 196.364 13.4073C196.65 13.4576 196.913 13.5929 197.115 13.794C197.317 13.9951 197.448 14.252 197.489 14.5284C197.666 15.4443 197.265 16.4217 196.546 16.8297ZM196.848 15.1031C196.848 14.89 196.769 14.6837 196.626 14.5207C196.55 14.4199 196.439 14.3477 196.313 14.3163C196.187 14.285 196.054 14.2965 195.936 14.3488C195.466 14.5438 195.134 15.2519 195.255 15.7727C195.264 15.8544 195.292 15.9332 195.336 16.0036C195.38 16.074 195.44 16.1343 195.511 16.1802C195.582 16.2262 195.662 16.2567 195.747 16.2696C195.832 16.2825 195.918 16.2775 196 16.255C196.249 16.1716 196.464 16.0158 196.616 15.8093C196.768 15.6028 196.849 15.3559 196.848 15.1031Z" fill="#3A3B7B"/>
<path d="M198.368 17.0452C198.355 17.1391 198.303 17.2241 198.225 17.2816C198.146 17.3391 198.047 17.3643 197.95 17.3518C197.852 17.3392 197.763 17.2898 197.703 17.2145C197.643 17.1392 197.617 17.0441 197.63 16.9502C197.643 16.8564 197.695 16.7713 197.773 16.7138C197.852 16.6563 197.951 16.6311 198.048 16.6437C198.146 16.6563 198.235 16.7056 198.295 16.7809C198.355 16.8562 198.381 16.9513 198.368 17.0452ZM198.135 13.5843C198.186 13.5098 198.261 13.4531 198.348 13.4226C198.435 13.392 198.53 13.3894 198.619 13.415C198.709 13.4367 198.789 13.4876 198.845 13.559C198.901 13.6305 198.93 13.7182 198.927 13.8075C198.915 13.9508 198.892 14.0931 198.86 14.2334C198.771 14.708 198.686 15.1826 198.592 15.6521C198.55 15.8394 198.493 16.019 198.432 16.2088C198.411 16.2682 198.375 16.3218 198.328 16.3653C198.298 16.3981 198.261 16.4232 198.219 16.4383C198.177 16.4535 198.131 16.4582 198.087 16.4521C198.042 16.446 198 16.4292 197.964 16.4032C197.928 16.3773 197.9 16.3431 197.881 16.3037C197.85 16.2332 197.832 16.1574 197.831 16.0806C197.831 15.7624 197.831 15.4418 197.852 15.1211C197.888 14.6634 197.96 14.2089 198.066 13.7614C198.078 13.7014 198.102 13.6441 198.135 13.592V13.5843Z" fill="#3A3B7B"/>
<path fill-rule="evenodd" clip-rule="evenodd" d="M186.145 19.1068C186.113 19.1744 186.105 19.2498 186.12 19.3223C186.13 19.4179 186.153 19.512 186.187 19.6024C186.23 19.713 186.278 19.8224 186.337 19.9573C186.35 19.9883 186.365 20.0207 186.38 20.0548C186.459 20.2375 186.559 20.4709 186.692 20.8088C186.73 20.9048 186.764 21.0016 186.798 21.099C186.811 21.1384 186.825 21.1779 186.839 21.2175C186.889 21.3582 186.975 21.4846 187.09 21.5849C187.139 21.6399 187.203 21.6801 187.275 21.7001C187.349 21.7206 187.427 21.7193 187.5 21.6964C187.573 21.6735 187.637 21.6301 187.684 21.5717C187.73 21.5145 187.758 21.4456 187.763 21.3736C187.793 21.2334 187.783 21.0879 187.733 20.9527C187.655 20.7282 187.567 20.5034 187.464 20.2834L187.464 20.2825C187.295 19.9384 187.124 19.5967 186.944 19.2549L186.943 19.2525C186.891 19.1634 186.822 19.0838 186.741 19.0172C186.689 18.9578 186.616 18.9177 186.536 18.9039C186.455 18.8898 186.37 18.904 186.299 18.944C186.231 18.9813 186.177 19.0382 186.145 19.1068Z" fill="#3A3B7B"/>
<path fill-rule="evenodd" clip-rule="evenodd" d="M188.719 18.2595C188.455 18.1938 188.179 18.1843 187.91 18.2315C187.702 18.2511 187.498 18.2972 187.356 18.3884C187.283 18.4348 187.225 18.4943 187.193 18.5701C187.16 18.6462 187.156 18.7333 187.182 18.8304C187.231 19.0081 187.295 19.181 187.358 19.3532L187.368 19.3811L187.369 19.3818C187.559 19.8822 187.751 20.381 187.945 20.8781C187.968 20.9564 188 21.032 188.04 21.1033L188.041 21.1046C188.095 21.1931 188.164 21.2723 188.245 21.3388C188.286 21.3754 188.336 21.4007 188.391 21.412C188.446 21.4234 188.503 21.4201 188.556 21.4024C188.609 21.3848 188.656 21.3534 188.692 21.3118C188.728 21.2708 188.751 21.2215 188.759 21.169C188.794 21.0264 188.783 20.8768 188.727 20.7405C188.71 20.6946 188.696 20.6477 188.681 20.5984C188.677 20.5819 188.672 20.5652 188.667 20.5481C189.111 20.3815 189.583 20.1575 189.749 19.6365C189.814 19.4564 189.82 19.2614 189.765 19.0782C189.71 18.8949 189.597 18.7324 189.442 18.613C189.23 18.446 188.984 18.3254 188.719 18.2595ZM187.986 18.8986C187.995 18.8962 188.004 18.894 188.013 18.8919C188.302 18.8483 188.598 18.9064 188.845 19.0555C188.955 19.1284 189 19.2095 189.007 19.2875C189.015 19.3678 188.985 19.4548 188.924 19.5384C188.808 19.6964 188.597 19.8229 188.407 19.8464C188.268 19.5397 188.127 19.2206 187.986 18.8986Z" fill="#3A3B7B"/>
<path d="M190.48 17.6981C190.795 17.5586 191.185 17.5345 191.49 17.6326C191.567 17.6541 191.633 17.7005 191.679 17.764C191.723 17.8271 191.744 17.9031 191.737 17.9791C191.737 18.0285 191.724 18.077 191.7 18.1208C191.676 18.1654 191.641 18.2037 191.598 18.2326C191.555 18.2614 191.506 18.28 191.454 18.2866C191.402 18.2932 191.349 18.2878 191.3 18.2707L191.296 18.2694L191.293 18.2676C191.268 18.2549 191.241 18.2454 191.213 18.2392L191.211 18.2388C190.997 18.1841 190.794 18.2748 190.721 18.3861C190.685 18.4392 190.681 18.4928 190.71 18.5416C190.742 18.5938 190.819 18.6524 190.975 18.6942C191.018 18.7055 191.062 18.7164 191.106 18.7275C191.23 18.7582 191.358 18.79 191.482 18.8342L191.483 18.8344C192.055 19.0433 192.268 19.4761 192.195 19.8832C192.123 20.2857 191.773 20.652 191.246 20.7384C191.054 20.7792 190.855 20.7713 190.667 20.7154C190.479 20.6594 190.31 20.5571 190.176 20.4187L190.172 20.4151C190.13 20.363 190.101 20.3017 190.089 20.2368C190.077 20.1781 190.083 20.1175 190.106 20.0621C190.129 20.007 190.168 19.9593 190.218 19.9246C190.271 19.8852 190.335 19.8615 190.402 19.8566C190.468 19.8517 190.535 19.8656 190.593 19.8965C190.652 19.9236 190.706 19.9581 190.755 19.9992L190.756 19.9999C190.842 20.0756 190.946 20.0953 191.046 20.0771C191.148 20.0585 191.243 20.0009 191.305 19.9244C191.366 19.8484 191.39 19.7582 191.361 19.6706C191.332 19.5823 191.244 19.4834 191.051 19.4007C191 19.3802 190.948 19.3636 190.893 19.3474C190.879 19.3431 190.864 19.3387 190.849 19.3343C190.808 19.3226 190.767 19.3105 190.726 19.2972C190.698 19.2881 190.671 19.2794 190.643 19.2708C190.568 19.2473 190.495 19.2244 190.424 19.1937C190.271 19.1436 190.138 19.0473 190.046 18.9192C189.954 18.7906 189.908 18.6367 189.914 18.4807C189.915 18.1004 190.164 17.8384 190.48 17.6981Z" fill="#3A3B7B"/>
<path d="M194.47 17.6576C194.409 17.629 194.342 17.6154 194.274 17.6181C194.206 17.6207 194.14 17.6396 194.081 17.6729C194.023 17.706 193.975 17.7524 193.94 17.8078C193.908 17.8545 193.886 17.9068 193.875 17.9616C193.864 18.0165 193.864 18.0728 193.876 18.1275C193.887 18.1978 193.9 18.2661 193.912 18.3335C193.933 18.445 193.953 18.5541 193.966 18.6652L193.967 18.6681C193.997 18.8424 194.013 19.0187 194.014 19.1954L194.014 19.1979C194.024 19.3888 193.957 19.5759 193.825 19.7196L193.823 19.7221C193.781 19.7746 193.723 19.8147 193.658 19.8379C193.593 19.8611 193.523 19.8664 193.455 19.8533C193.387 19.8402 193.324 19.8091 193.273 19.7637C193.222 19.7182 193.186 19.6599 193.167 19.5956C193.128 19.4601 193.106 19.3208 193.1 19.1803L193.167 18.1623C193.168 18.149 193.169 18.1354 193.17 18.1216C193.172 18.0907 193.175 18.0592 193.176 18.0298C193.178 17.9866 193.176 17.9421 193.166 17.9001C193.155 17.8571 193.135 17.8162 193.098 17.7813C193.063 17.7469 193.014 17.7214 192.953 17.7041C192.843 17.6735 192.75 17.6745 192.672 17.7061C192.595 17.7377 192.541 17.7964 192.504 17.8642C192.466 17.9315 192.442 18.0111 192.424 18.0908C192.411 18.15 192.4 18.2121 192.39 18.2713C192.386 18.2916 192.382 18.3116 192.379 18.3311L192.379 18.3316C192.324 18.6559 192.307 18.9851 192.33 19.313C192.334 19.4901 192.373 19.665 192.444 19.8286C192.523 20.0398 192.668 20.2228 192.859 20.3534C193.05 20.4842 193.277 20.5563 193.512 20.5601C193.746 20.5639 193.977 20.4993 194.172 20.3747C194.367 20.2503 194.518 20.072 194.606 19.8634C194.728 19.5977 194.785 19.3088 194.773 19.0186C194.766 18.8067 194.754 18.5932 194.742 18.3808C194.736 18.2766 194.73 18.1726 194.725 18.0693C194.722 17.9657 194.687 17.8653 194.623 17.7817C194.584 17.7288 194.531 17.6861 194.47 17.6576Z" fill="#3A3B7B"/>
<path d="M196.63 19.2539C196.624 19.2614 196.617 19.2692 196.61 19.2773C196.561 19.0025 196.515 18.7278 196.469 18.4527C196.452 18.354 196.435 18.2549 196.419 18.156L196.417 18.145L196.411 18.1355C196.399 18.1175 196.398 18.0999 196.398 18.0624V18.0581L196.397 18.0538C196.385 17.9764 196.348 17.9043 196.293 17.8471C196.237 17.79 196.165 17.7502 196.085 17.733C196.006 17.7142 195.923 17.7183 195.846 17.7449C195.769 17.7713 195.702 17.8189 195.654 17.8816C195.613 17.9298 195.58 17.9831 195.555 18.0402C195.499 18.1631 195.442 18.2862 195.385 18.4097L195.384 18.4119C195.242 18.7202 195.098 19.0307 194.959 19.3435L194.959 19.3445C194.873 19.5474 194.803 19.7612 194.733 19.9742C194.719 20.0168 194.705 20.0593 194.69 20.1017C194.665 20.1689 194.654 20.2404 194.658 20.3118C194.653 20.3757 194.669 20.4395 194.703 20.4945C194.739 20.5506 194.791 20.5947 194.854 20.6207C194.92 20.6486 194.994 20.6545 195.064 20.6375C195.134 20.6206 195.197 20.5818 195.241 20.5272C195.298 20.46 195.347 20.3866 195.387 20.309C195.505 20.0775 195.618 19.8433 195.73 19.61C195.773 19.5198 195.815 19.439 195.863 19.351C195.867 19.3618 195.87 19.3724 195.873 19.383C195.924 19.5955 196.009 19.799 196.125 19.9861C196.147 20.0257 196.178 20.0603 196.215 20.0876C196.252 20.1152 196.296 20.1346 196.342 20.1444C196.388 20.1542 196.436 20.1543 196.483 20.1445C196.529 20.1348 196.572 20.1154 196.61 20.0879L196.685 20.0344L197.264 19.5664L197.229 19.7758C197.182 20.0636 197.136 20.349 197.086 20.6344C197.054 20.761 197.054 20.8931 197.086 21.0196C197.1 21.0908 197.136 21.1563 197.189 21.2079C197.243 21.2598 197.311 21.2951 197.386 21.3092C197.461 21.3233 197.538 21.3155 197.608 21.2868C197.677 21.2586 197.736 21.2113 197.777 21.1512C197.872 21.0375 197.932 20.8999 197.948 20.7547C197.973 20.5497 198 20.3419 198.028 20.1342C198.06 19.8948 198.092 19.6554 198.119 19.4207L198.119 19.4199C198.145 19.1629 198.158 18.9049 198.157 18.6467C198.163 18.5651 198.141 18.4838 198.096 18.4143C198.051 18.3446 197.984 18.2904 197.905 18.2594C197.822 18.2235 197.73 18.2138 197.642 18.232C197.554 18.2501 197.474 18.2946 197.414 18.359C197.308 18.4538 197.207 18.5552 197.115 18.6626L197.114 18.6633C197.012 18.7846 196.912 18.9083 196.812 19.0312C196.751 19.1059 196.69 19.1805 196.63 19.2539Z" fill="#3A3B7B"/>
</g>
<g clip-path="url(#clip4_2_841)">
<path d="M259.971 12.648C259.971 12.8036 260.099 12.9297 260.256 12.9297H260.541C260.699 12.9297 260.826 12.8036 260.826 12.648C260.826 12.4924 260.699 12.3663 260.541 12.3663H260.256C260.099 12.3663 259.971 12.4924 259.971 12.648Z" fill="#212326"/>
<path d="M251.701 21.3807H253.086L252.683 20.9823C252.576 20.8767 252.431 20.8173 252.28 20.8173H251.701C249.496 20.8173 247.708 19.0516 247.708 16.8735C247.708 14.6954 249.496 12.9297 251.701 12.9297H256.264C258.469 12.9297 260.256 14.6954 260.256 16.8735C260.256 19.0516 258.469 20.8173 256.264 20.8173H254.557C254.33 20.8173 254.112 20.7283 253.952 20.5698L253.479 20.1031C253.212 19.8389 252.849 19.6905 252.471 19.6905H251.701C250.126 19.6905 248.849 18.4293 248.849 16.8735C248.849 15.3177 250.126 14.0565 251.701 14.0565H256.264C257.839 14.0565 259.115 15.3177 259.115 16.8735C259.115 18.4293 257.839 19.6905 256.264 19.6905H255.168C254.941 19.6905 254.723 19.6015 254.563 19.443L254.09 18.9763C253.823 18.7121 253.46 18.5637 253.082 18.5637H251.701C250.756 18.5637 249.99 17.807 249.99 16.8735C249.99 15.9401 250.756 15.1833 251.701 15.1833H256.264C257.209 15.1833 257.975 15.9401 257.975 16.8735C257.975 17.7956 257.227 18.5453 256.298 18.5634L256.298 18.5637H255.881C255.654 18.5637 255.436 18.4747 255.276 18.3162L254.803 17.8495C254.584 17.6327 254.3 17.4939 253.997 17.4511L253.982 17.4369H251.701C251.386 17.4369 251.13 17.1847 251.13 16.8735C251.13 16.5624 251.386 16.3101 251.701 16.3101H256.264C256.579 16.3101 256.834 16.5624 256.834 16.8735C256.834 17.1847 256.579 17.4369 256.264 17.4369H255.123L255.526 17.8353C255.633 17.941 255.778 18.0003 255.93 18.0003H256.264C256.894 18.0003 257.404 17.4958 257.404 16.8735C257.404 16.2512 256.894 15.7467 256.264 15.7467H251.701C251.071 15.7467 250.56 16.2512 250.56 16.8735C250.56 17.4958 251.071 18.0003 251.701 18.0003H253.795C254.022 18.0003 254.239 18.0894 254.4 18.2478L254.872 18.7146C255.14 18.9787 255.502 19.1271 255.881 19.1271H256.406V19.1228C257.6 19.0501 258.545 18.0708 258.545 16.8735C258.545 15.6289 257.524 14.6199 256.264 14.6199H251.701C250.441 14.6199 249.419 15.6289 249.419 16.8735C249.419 18.1182 250.441 19.1271 251.701 19.1271H253.082C253.309 19.1271 253.527 19.2162 253.687 19.3746L254.159 19.8414C254.427 20.1055 254.79 20.2539 255.168 20.2539H256.264C258.154 20.2539 259.686 18.7405 259.686 16.8735C259.686 15.0066 258.154 13.4931 256.264 13.4931H251.701C249.811 13.4931 248.279 15.0066 248.279 16.8735C248.279 18.7405 249.811 20.2539 251.701 20.2539H252.471C252.698 20.2539 252.916 20.343 253.076 20.5014L253.549 20.9682C253.816 21.2323 254.179 21.3807 254.557 21.3807H256.264C258.784 21.3807 260.827 19.3628 260.827 16.8735C260.827 14.3843 258.784 12.3663 256.264 12.3663L251.701 12.3663C249.181 12.3663 247.138 14.3843 247.138 16.8735C247.138 19.3628 249.181 21.3807 251.701 21.3807Z" fill="#212326"/>
</g>
<g clip-path="url(#clip5_2_841)">
<path d="M310.687 13.3679C310.009 13.3679 309.359 13.6373 308.88 14.1167L307.315 15.6813C306.836 16.1607 306.566 16.8109 306.566 17.4889C306.566 18.9007 307.711 20.0453 309.123 20.0453C309.801 20.0453 310.451 19.7759 310.93 19.2965L312.012 18.2143C312.012 18.2142 312.012 18.2143 312.012 18.2143L315.166 15.061C315.395 14.832 315.705 14.7034 316.029 14.7034C316.571 14.7034 317.031 15.0567 317.19 15.5456L318.185 14.5505C317.731 13.8394 316.935 13.3679 316.029 13.3679C315.351 13.3679 314.701 13.6373 314.221 14.1167L309.986 18.3522C309.757 18.5812 309.446 18.7098 309.123 18.7098C308.448 18.7098 307.902 18.1632 307.902 17.4889C307.902 17.1651 308.03 16.8545 308.259 16.6256L309.824 15.061C310.053 14.832 310.363 14.7034 310.687 14.7034C311.229 14.7034 311.689 15.0567 311.848 15.5457L312.843 14.5505C312.389 13.8394 311.593 13.3679 310.687 13.3679Z" fill="#394149"/>
<path d="M315.328 18.3522C315.099 18.5811 314.788 18.7098 314.464 18.7098C313.922 18.7098 313.463 18.3565 313.303 17.8677L312.308 18.8628C312.762 19.5738 313.558 20.0452 314.464 20.0452C315.142 20.0452 315.793 19.7759 316.272 19.2965L320.508 15.061C320.737 14.832 321.047 14.7034 321.371 14.7034C322.045 14.7034 322.592 15.25 322.592 15.9243C322.592 16.2481 322.463 16.5586 322.234 16.7876L320.67 18.3522C320.441 18.5811 320.13 18.7098 319.806 18.7098C319.264 18.7098 318.805 18.3565 318.645 17.8676L317.65 18.8628C318.104 19.5738 318.9 20.0452 319.806 20.0452C320.484 20.0452 321.134 19.7759 321.614 19.2965L323.178 17.7319C323.658 17.2525 323.927 16.6023 323.927 15.9243C323.927 14.5124 322.783 13.3679 321.371 13.3679C320.693 13.3679 320.043 13.6372 319.563 14.1167L315.328 18.3522Z" fill="#394149"/>
</g>
<g clip-path="url(#clip6_2_841)">
<path d="M386.025 15.2608C386.027 15.2469 386.027 15.2328 386.025 15.2189C386.027 15.2076 386.027 15.196 386.025 15.1846L385.889 14.2055C385.869 14.0884 385.817 13.9789 385.737 13.8893L385.714 13.8626L385.671 13.8207L383.316 11.832L383.383 11.8968C383.328 11.8334 383.261 11.7827 383.184 11.7484C383.107 11.7141 383.024 11.6971 382.94 11.6987H382.224C382.108 11.6964 381.995 11.7327 381.902 11.8016C381.805 11.7331 381.687 11.697 381.568 11.6987H380.853C380.759 11.6972 380.666 11.72 380.585 11.7648C380.503 11.8097 380.434 11.8749 380.386 11.9539C380.313 12.0668 380.285 12.2029 380.309 12.3349L380.398 12.9521C380.339 12.9192 380.272 12.9021 380.204 12.9026H376.741C376.617 12.9034 376.496 12.939 376.391 13.0054C376.291 13.0673 376.21 13.1557 376.158 13.2607L375.89 13.0359C375.785 12.9402 375.645 12.8883 375.502 12.8912H370.069C369.944 12.8934 369.822 12.9275 369.715 12.9902C369.569 13.0742 369.461 13.2109 369.416 13.3712L367.691 19.0287C367.658 19.1219 367.655 19.2225 367.681 19.3175C367.708 19.4124 367.762 19.4976 367.838 19.5621C367.858 19.5785 367.879 19.5938 367.9 19.6078C367.9 19.6078 367.865 19.5849 367.846 19.5659L370.201 21.5584C370.301 21.6483 370.431 21.6986 370.566 21.6993H376.042C376.167 21.6962 376.289 21.6607 376.395 21.5965C376.456 21.5642 376.51 21.5216 376.555 21.4708L376.574 21.4441L376.605 21.406L376.629 21.3641L376.885 21.5813C376.983 21.6676 377.111 21.7151 377.243 21.7146H382.73C382.855 21.7105 382.976 21.6751 383.083 21.6117C383.142 21.5774 383.196 21.5351 383.243 21.486L383.262 21.4593L383.293 21.4212C383.31 21.3971 383.324 21.3716 383.336 21.345C383.349 21.3219 383.359 21.2977 383.367 21.2727L384.941 16.1066V16.0609C384.943 16.0432 384.943 16.0253 384.941 16.0076V15.9733C384.943 15.9619 384.943 15.9503 384.941 15.939C384.943 15.9149 384.943 15.8907 384.941 15.8666H385.446C385.49 15.8705 385.534 15.8705 385.578 15.8666H385.613C385.642 15.8583 385.669 15.8467 385.695 15.8323H385.734L385.804 15.779L385.835 15.7561L385.889 15.6875V15.6647L385.928 15.5999C385.926 15.5873 385.926 15.5744 385.928 15.5618C385.926 15.5556 385.926 15.5489 385.928 15.5428C385.936 15.5204 385.943 15.4975 385.947 15.4742C385.946 15.4667 385.946 15.4588 385.947 15.4513C385.945 15.44 385.945 15.4284 385.947 15.417C385.947 15.417 386.025 15.2684 386.025 15.2608Z" fill="black"/>
<path d="M375.661 13.3254C375.682 13.3437 375.696 13.3678 375.702 13.3943C375.709 13.4209 375.706 13.4487 375.696 13.474L373.974 19.1277C373.953 19.1894 373.908 19.2411 373.85 19.2725C373.803 19.3036 373.748 19.322 373.691 19.3258H368.219C368.172 19.3236 368.128 19.3047 368.095 19.2725C368.075 19.2545 368.061 19.2311 368.055 19.2053C368.049 19.1796 368.05 19.1525 368.06 19.1277L369.785 13.474C369.805 13.4115 369.848 13.3585 369.906 13.3254C369.954 13.2965 370.009 13.2796 370.065 13.2759H375.537C375.583 13.2763 375.627 13.2941 375.661 13.3254ZM372.805 17.9886L373.834 14.6131H370.951L369.925 17.9886H372.805ZM380.884 13.3826C380.902 13.4039 380.926 13.4207 380.952 13.4319C380.978 13.4431 381.007 13.4484 381.035 13.4474H381.747C381.774 13.4476 381.8 13.4411 381.824 13.4284C381.848 13.4158 381.868 13.3974 381.883 13.375C381.895 13.3575 381.904 13.3377 381.909 13.3167C381.913 13.2958 381.914 13.2741 381.91 13.2531L381.77 12.2473C381.757 12.2007 381.733 12.1577 381.7 12.1216C381.681 12.1003 381.658 12.0834 381.632 12.0722C381.605 12.061 381.577 12.0557 381.548 12.0568H380.837C380.81 12.0565 380.783 12.063 380.76 12.0757C380.736 12.0884 380.716 12.1068 380.701 12.1292C380.674 12.1825 380.662 12.2168 380.674 12.2473L380.818 13.2531C380.825 13.302 380.848 13.3474 380.884 13.3826ZM383.142 12.2397C383.128 12.1931 383.104 12.1501 383.072 12.1139C383.054 12.0927 383.031 12.0759 383.006 12.0646C382.98 12.0534 382.952 12.0481 382.924 12.0492H382.209C382.182 12.0484 382.156 12.0548 382.133 12.0675C382.109 12.0802 382.09 12.0989 382.077 12.1216C382.051 12.1553 382.04 12.1978 382.046 12.2397L382.19 13.2454C382.199 13.2939 382.221 13.3388 382.256 13.375C382.275 13.3958 382.298 13.4124 382.324 13.4236C382.35 13.4348 382.379 13.4403 382.407 13.4397H383.122C383.149 13.4401 383.175 13.4336 383.198 13.4209C383.221 13.4082 383.241 13.3897 383.254 13.3673C383.268 13.3503 383.277 13.3305 383.282 13.3094C383.287 13.2883 383.287 13.2665 383.282 13.2454L383.142 12.2397ZM380.258 13.7636L380.188 13.2683H376.741C376.687 13.2712 376.635 13.2883 376.59 13.3178C376.561 13.3331 376.536 13.3543 376.517 13.38C376.497 13.4056 376.484 13.4351 376.477 13.4664L376.189 14.4112C376.178 14.4348 376.174 14.4613 376.178 14.4872C376.182 14.513 376.194 14.537 376.213 14.556C376.246 14.5862 376.288 14.6038 376.333 14.6055H380.522L379.493 17.981H375.315C375.261 17.9822 375.209 17.998 375.164 18.0267C375.109 18.0609 375.068 18.1138 375.051 18.1753L374.759 19.1201C374.75 19.1444 374.747 19.1707 374.752 19.1962C374.757 19.2218 374.769 19.2455 374.787 19.2649C374.818 19.2971 374.861 19.3162 374.907 19.3182H380.394C380.451 19.3134 380.506 19.2951 380.553 19.2649C380.611 19.2333 380.654 19.1816 380.674 19.1201L382.252 13.9541H380.476C380.448 13.9546 380.42 13.9495 380.394 13.939C380.367 13.9285 380.344 13.9129 380.324 13.8931C380.292 13.8585 380.269 13.8166 380.258 13.7712V13.7636Z" fill="white"/>
</g>
<defs>
<clipPath id="clip0_2_841">
<rect width="13.3547" height="13.3547" fill="white" transform="translate(1.41221 10.0804)"/>
</clipPath>
<clipPath id="clip1_2_841">
<rect width="13.3547" height="9.34826" fill="white" transform="translate(62.8437 12.0325)"/>
</clipPath>
<clipPath id="clip2_2_841">
<rect width="18.3627" height="10.016" fill="white" transform="translate(121.938 11.6986)"/>
</clipPath>
<clipPath id="clip3_2_841">
<rect width="15.6917" height="9.68213" fill="white" transform="translate(184.705 12.0325)"/>
</clipPath>
<clipPath id="clip4_2_841">
<rect width="13.6885" height="9.0144" fill="white" transform="translate(247.138 12.3663)"/>
</clipPath>
<clipPath id="clip5_2_841">
<rect width="17.3611" height="6.67733" fill="white" transform="translate(306.566 13.3679)"/>
</clipPath>
<clipPath id="clip6_2_841">
<rect width="18.3627" height="10.016" fill="white" transform="translate(367.664 11.6986)"/>
</clipPath>
</defs>
</svg>
