<svg width="23" height="20" viewBox="0 0 23 20" fill="none" xmlns="http://www.w3.org/2000/svg">
<path d="M22.2345 13.5135C22.2345 16.8325 19.5439 19.5231 16.2249 19.5231L7.21049 19.5231C6.28854 19.5231 5.54115 18.7757 5.54116 17.8538L5.54116 6.50233C5.54116 4.65844 7.03593 3.16367 8.87982 3.16367L20.5652 3.16367C21.4871 3.16367 22.2345 3.91106 22.2345 4.833L22.2345 13.5135Z" fill="#E8F5E9"/>
<path d="M9.51965 7.17377C9.41548 7.17377 9.3308 7.08922 9.3308 6.98491V6.66396C9.3308 6.55978 9.41535 6.4751 9.51965 6.4751C9.62383 6.4751 9.70851 6.55965 9.70851 6.66396V6.98491C9.70851 7.08922 9.62383 7.17377 9.51965 7.17377Z" fill="#103E13"/>
<path d="M8.72559 7.17377C8.62141 7.17377 8.53673 7.08922 8.53673 6.98491V6.66396C8.53673 6.55978 8.62128 6.4751 8.72559 6.4751C8.82976 6.4751 8.91445 6.55965 8.91445 6.66396V6.98491C8.91431 7.08922 8.8299 7.17377 8.72559 7.17377Z" fill="#103E13"/>
<path d="M7.93164 7.17377C7.82747 7.17377 7.74278 7.08922 7.74278 6.98491V6.66396C7.74278 6.55978 7.82733 6.4751 7.93164 6.4751C8.03582 6.4751 8.1205 6.55965 8.1205 6.66396V6.98491C8.1205 7.08922 8.03595 7.17377 7.93164 7.17377Z" fill="#103E13"/>
<path d="M9.51965 8.48625C9.41548 8.48625 9.3308 8.4017 9.3308 8.29739V7.97657C9.3308 7.8724 9.41535 7.78771 9.51965 7.78771C9.62383 7.78771 9.70851 7.87226 9.70851 7.97657V8.29739C9.70851 8.4017 9.62383 8.48625 9.51965 8.48625Z" fill="#103E13"/>
<path d="M8.72559 8.48625C8.62141 8.48625 8.53673 8.4017 8.53673 8.29739V7.97657C8.53673 7.8724 8.62128 7.78771 8.72559 7.78771C8.82976 7.78771 8.91445 7.87226 8.91445 7.97657V8.29739C8.91431 8.4017 8.8299 8.48625 8.72559 8.48625Z" fill="#103E13"/>
<path d="M7.93164 8.48625C7.82747 8.48625 7.74278 8.4017 7.74278 8.29739V7.97657C7.74278 7.8724 7.82733 7.78771 7.93164 7.78771C8.03582 7.78771 8.1205 7.87226 8.1205 7.97657V8.29739C8.1205 8.4017 8.03595 8.48625 7.93164 8.48625Z" fill="#103E13"/>
<path d="M9.51965 9.79879C9.41548 9.79879 9.3308 9.71424 9.3308 9.60993V9.28898C9.3308 9.18481 9.41535 9.10012 9.51965 9.10012C9.62383 9.10012 9.70851 9.18467 9.70851 9.28898V9.60993C9.70851 9.71424 9.62383 9.79879 9.51965 9.79879Z" fill="#103E13"/>
<path d="M8.72559 9.79879C8.62141 9.79879 8.53673 9.71424 8.53673 9.60993V9.28898C8.53673 9.18481 8.62128 9.10012 8.72559 9.10012C8.82976 9.10012 8.91445 9.18467 8.91445 9.28898V9.60993C8.91431 9.71424 8.8299 9.79879 8.72559 9.79879Z" fill="#103E13"/>
<path d="M7.93164 9.79879C7.82747 9.79879 7.74278 9.71424 7.74278 9.60993V9.28898C7.74278 9.18481 7.82733 9.10012 7.93164 9.10012C8.03582 9.10012 8.1205 9.18467 8.1205 9.28898V9.60993C8.1205 9.71424 8.03595 9.79879 7.93164 9.79879Z" fill="#103E13"/>
<path d="M9.51965 11.111C9.41548 11.111 9.3308 11.0265 9.3308 10.9222V10.6012C9.3308 10.497 9.41535 10.4124 9.51965 10.4124C9.62383 10.4124 9.70851 10.4969 9.70851 10.6012V10.9222C9.70851 11.0265 9.62383 11.111 9.51965 11.111Z" fill="#103E13"/>
<path d="M8.72559 11.111C8.62141 11.111 8.53673 11.0265 8.53673 10.9222V10.6012C8.53673 10.497 8.62128 10.4124 8.72559 10.4124C8.82976 10.4124 8.91445 10.4969 8.91445 10.6012V10.9222C8.91431 11.0265 8.8299 11.111 8.72559 11.111Z" fill="#103E13"/>
<path d="M7.93164 11.111C7.82747 11.111 7.74278 11.0265 7.74278 10.9222V10.6012C7.74278 10.497 7.82733 10.4124 7.93164 10.4124C8.03582 10.4124 8.1205 10.4969 8.1205 10.6012V10.9222C8.1205 11.0265 8.03595 11.111 7.93164 11.111Z" fill="#103E13"/>
<path d="M9.51965 12.4235C9.41548 12.4235 9.3308 12.339 9.3308 12.2346V11.9138C9.3308 11.8097 9.41535 11.725 9.51965 11.725C9.62383 11.725 9.70851 11.8095 9.70851 11.9138V12.2346C9.70851 12.3388 9.62383 12.4235 9.51965 12.4235Z" fill="#103E13"/>
<path d="M8.72559 12.4235C8.62141 12.4235 8.53673 12.339 8.53673 12.2346V11.9138C8.53673 11.8097 8.62128 11.725 8.72559 11.725C8.82976 11.725 8.91445 11.8095 8.91445 11.9138V12.2346C8.91431 12.3388 8.8299 12.4235 8.72559 12.4235Z" fill="#103E13"/>
<path d="M7.93164 12.4235C7.82747 12.4235 7.74278 12.339 7.74278 12.2346L7.74291 11.9138C7.74291 11.8097 7.82747 11.725 7.93177 11.725C8.03595 11.725 8.12063 11.8095 8.12063 11.9138V12.2346C8.1205 12.3388 8.03595 12.4235 7.93164 12.4235Z" fill="#103E13"/>
<path d="M2.5365 13.7296C2.5365 13.8338 2.62106 13.9185 2.72536 13.9185H14.2263C14.3305 13.9185 14.4152 13.8339 14.4152 13.7296C14.4152 13.6255 14.3306 13.5408 14.2263 13.5408H13.8772V8.11834C13.8772 8.01417 13.7926 7.92948 13.6883 7.92948L10.6048 7.92961V4.02033C10.6048 3.95421 10.5703 3.8931 10.514 3.85886C10.4577 3.82449 10.3874 3.82238 10.3289 3.8528L6.82321 5.67804C6.76065 5.71057 6.72167 5.77511 6.72167 5.84557V9.26025H3.3289C3.22473 9.26025 3.14005 9.3448 3.14005 9.44911V13.5408H2.72494C2.62077 13.5407 2.53635 13.6252 2.53635 13.7295L2.5365 13.7296ZM10.6049 10.79H13.4997V13.5409L10.6049 13.5408V10.79ZM10.6049 9.47756H13.4997V10.4124L10.6049 10.4122V9.47756ZM10.6049 8.30713H13.4997V9.10011H10.6049V8.30713ZM7.09919 5.96024L10.2271 4.33163V13.5406H7.09919V5.96024ZM4.45136 12.0324C4.45136 11.6404 4.76191 11.3214 5.14371 11.3214C5.5255 11.3214 5.83618 11.6403 5.83618 12.0324V13.5409H4.45136V12.0324ZM3.51775 9.63791H6.72161V13.5408H6.2139V12.0323C6.2139 11.4321 5.73399 10.9438 5.14371 10.9438C4.55369 10.9438 4.07379 11.432 4.07379 12.0323V13.5408H3.51775V9.63791Z" fill="#103E13"/>
</svg>
