<svg width="23" height="20" viewBox="0 0 23 20" fill="none" xmlns="http://www.w3.org/2000/svg">
<path d="M22.6286 13.5135C22.6286 16.8325 19.938 19.5231 16.619 19.5231L7.60458 19.5231C6.68263 19.5231 5.93524 18.7757 5.93524 17.8537L5.93524 6.50226C5.93524 4.65836 7.43002 3.16359 9.27391 3.16359L20.9592 3.1636C21.8812 3.1636 22.6286 3.91098 22.6286 4.83293L22.6286 13.5135Z" fill="#E8F5E9"/>
<path d="M10.3796 8.72073C10.2992 8.72073 10.2246 8.69863 10.1582 8.66307V8.66402C10.1582 8.7905 10.1091 8.90928 10.0199 8.99824C9.93069 9.08744 9.812 9.1366 9.68566 9.1366C9.60409 9.1366 9.5285 9.11395 9.46148 9.07745C9.45472 9.19316 9.40847 9.30131 9.32595 9.38391C9.23676 9.47311 9.11806 9.52227 8.99165 9.52227C8.74049 9.52227 8.53652 9.32484 8.52182 9.07737C8.44411 9.11938 8.35625 9.1414 8.26563 9.13558C8.01855 9.11938 7.82506 8.9059 7.82506 8.64947V6.52385L7.58302 6.94318C7.49083 7.10356 7.31826 7.20314 7.13246 7.20314C7.04193 7.20314 6.95249 7.17939 6.87329 7.134C6.77465 7.07682 6.70409 6.98502 6.67475 6.87521C6.64526 6.76532 6.66052 6.6504 6.71754 6.55191C6.71762 6.55191 7.50947 5.18066 7.55778 5.09643C7.56352 5.08376 7.57988 5.04703 7.59381 5.01572C7.6071 4.98583 7.61851 4.95516 7.62944 4.92432C7.86824 4.25015 8.45952 3.83137 9.17264 3.83137C10.0987 3.83137 10.8521 4.64831 10.8521 5.65248L10.8521 8.24807C10.8521 8.3744 10.8031 8.4931 10.7139 8.58238C10.6247 8.67158 10.5061 8.72074 10.3796 8.72074L10.3796 8.72073ZM9.17265 4.08249C8.55989 4.08249 8.0715 4.42859 7.86613 5.0083C7.85299 5.04511 7.83931 5.08193 7.82334 5.1178C7.77701 5.2217 7.77701 5.2217 7.76395 5.23665L7.76222 5.23515C7.69757 5.35715 7.50548 5.68979 6.93497 6.67759C6.91153 6.7181 6.90532 6.76514 6.91728 6.81013C6.92939 6.85512 6.95842 6.89304 6.99861 6.91624C7.12336 6.9879 7.29421 6.94165 7.36532 6.81776L7.84191 5.99263C7.87038 5.94346 7.92796 5.91932 7.98318 5.93426C8.03808 5.94897 8.07623 5.99876 8.07623 6.05555V8.64954C8.07623 8.77193 8.16857 8.87756 8.28208 8.88503C8.34753 8.8885 8.40857 8.86655 8.45442 8.82077C8.49611 8.77908 8.51908 8.72355 8.51908 8.66416V6.96766C8.51908 6.89829 8.57532 6.84204 8.6447 6.84204C8.71408 6.84204 8.77032 6.89821 8.77032 6.96766L8.77024 9.04978C8.77024 9.17185 8.86958 9.2712 8.99166 9.2712C9.05097 9.2712 9.10666 9.24823 9.14843 9.20654C9.19011 9.16477 9.21308 9.10909 9.21308 9.04978V6.96766C9.21308 6.89828 9.26924 6.84204 9.3387 6.84204C9.40808 6.84204 9.46432 6.89821 9.46432 6.96766L9.46424 8.64465V8.66416C9.46424 8.78616 9.56358 8.8855 9.68574 8.8855C9.74497 8.8855 9.8005 8.86245 9.84251 8.8206C9.8842 8.77899 9.90716 8.72346 9.90716 8.66407V6.96757C9.90716 6.8982 9.96333 6.84195 10.0328 6.84195C10.1022 6.84195 10.1584 6.89812 10.1584 6.96757L10.1582 8.24813C10.1582 8.37029 10.2576 8.46964 10.3796 8.46964C10.439 8.46964 10.4945 8.44659 10.5362 8.40498C10.578 8.36313 10.6009 8.30744 10.6009 8.24813L10.601 5.65254C10.601 4.78691 9.96026 4.08251 9.17264 4.08251L9.17265 4.08249Z" fill="#103E13"/>
<path d="M5.4442 10.5247L7.26702 9.43122C7.48679 9.29923 7.76957 9.35531 7.91052 9.55896C7.96197 9.63313 7.98824 9.71958 7.99233 9.8076C8.06029 9.77213 8.13423 9.75286 8.2095 9.75286C8.24804 9.75286 8.28674 9.75766 8.32497 9.76717C8.44744 9.79777 8.55064 9.87431 8.61554 9.98253C8.68051 10.0909 8.69947 10.2179 8.66887 10.3403C8.64063 10.4535 8.57181 10.5487 8.47608 10.6141C8.54302 10.6536 8.60075 10.7075 8.64181 10.7761C8.70679 10.8844 8.72574 11.0114 8.69522 11.1339C8.66462 11.2562 8.58809 11.3594 8.4797 11.4244L8.47907 11.4248C8.54483 11.4642 8.60154 11.5176 8.64213 11.5851C8.70718 11.6935 8.72614 11.8206 8.69554 11.943C8.66486 12.0654 8.58833 12.1686 8.4801 12.2336L6.25441 13.5688C5.83901 13.8179 5.3588 13.9039 4.90242 13.8107C4.44196 13.7166 4.06062 13.452 3.82875 13.0654C3.4618 12.4539 3.51679 11.7313 3.97198 11.1798C3.99283 11.1546 4.01336 11.129 4.032 11.1024C4.05174 11.0743 4.07479 11.0413 4.08265 11.03C4.12977 10.9458 4.89859 9.56063 4.89851 9.56079C4.97614 9.4207 5.12166 9.34141 5.27174 9.34149C5.34174 9.34149 5.41277 9.35871 5.4783 9.39505C5.55743 9.43926 5.62389 9.50368 5.67038 9.58132C5.76595 9.7406 5.76933 9.93993 5.67935 10.1012L5.4442 10.5247ZM5.45514 9.71045C5.43075 9.66978 5.39724 9.63738 5.35626 9.61441C5.27155 9.56753 5.16489 9.59805 5.11825 9.68245C4.56812 10.6735 4.38059 11.0113 4.30822 11.1315L4.30987 11.1319C4.30381 11.152 4.30381 11.152 4.23758 11.2466C4.21509 11.2787 4.19063 11.3094 4.16569 11.3397C3.77428 11.8139 3.72883 12.4107 4.04401 12.9362C4.23924 13.2617 4.5619 13.4849 4.95258 13.5646C5.34752 13.6449 5.76378 13.5702 6.12507 13.3534L8.35096 12.0181C8.40178 11.9877 8.43764 11.9393 8.45196 11.882C8.46628 11.8247 8.45739 11.7652 8.42687 11.7144C8.3641 11.6097 8.22778 11.5754 8.12317 11.6384L7.0251 12.2971C6.96564 12.3329 6.8884 12.3137 6.85276 12.2541C6.81705 12.1947 6.83632 12.1175 6.89579 12.0818L7.99393 11.423L8.35057 11.2091C8.40138 11.1785 8.43733 11.1302 8.45165 11.073C8.46596 11.0156 8.45708 10.956 8.42656 10.9053C8.36371 10.8006 8.22739 10.7665 8.12286 10.8293L6.66807 11.702C6.60845 11.7378 6.53144 11.7185 6.49573 11.659C6.46002 11.5995 6.47937 11.5224 6.53876 11.4867L8.32422 10.4156C8.37504 10.3851 8.41091 10.3368 8.42522 10.2794C8.43954 10.2221 8.43065 10.1626 8.40021 10.1118C8.36977 10.0611 8.32139 10.0252 8.26405 10.0109C8.20639 9.99656 8.14709 10.0054 8.09643 10.0358L7.76591 10.2341C7.76583 10.2341 7.76583 10.2342 7.76575 10.2342H7.76567L6.31097 11.1069C6.25135 11.1428 6.17426 11.1234 6.13863 11.0639C6.10292 11.0044 6.12227 10.9272 6.18166 10.8915L7.63644 10.0188C7.68725 9.9883 7.7232 9.93993 7.73751 9.88274C7.75325 9.81997 7.74129 9.75579 7.704 9.70199C7.63935 9.60846 7.50107 9.5836 7.39622 9.64661L5.17194 10.981C5.12325 11.0101 5.06087 11.003 5.02005 10.9636C4.97915 10.9241 4.96994 10.862 4.99748 10.8124L5.45999 9.9791C5.5064 9.8958 5.50459 9.79292 5.45511 9.71048L5.45514 9.71045Z" fill="#103E13"/>
<path d="M14.1545 13.0653C13.9226 13.4519 13.5414 13.7166 13.0809 13.8106C12.6244 13.9037 12.1443 13.8179 11.7289 13.5687L9.50298 12.2335C9.39467 12.1685 9.31805 12.0653 9.28738 11.9427C9.25694 11.8204 9.27597 11.6934 9.34086 11.5851C9.38137 11.5175 9.43816 11.4642 9.504 11.4248L9.50337 11.4244C9.39506 11.3594 9.31845 11.2562 9.28793 11.1338C9.25726 11.0114 9.27629 10.8843 9.34126 10.7759C9.38311 10.7063 9.44045 10.6519 9.50589 10.6132C9.41087 10.5479 9.34244 10.4529 9.31428 10.3403C9.28361 10.2178 9.30264 10.0908 9.36761 9.98255C9.43251 9.87424 9.53578 9.7977 9.65818 9.76711C9.69641 9.75751 9.73519 9.75279 9.77357 9.75279C9.84893 9.75287 9.92287 9.77198 9.99083 9.80754C9.995 9.71952 10.0212 9.63307 10.0726 9.55889C10.2137 9.35541 10.4962 9.29909 10.7163 9.43115L12.5391 10.5245L12.3041 10.1013C12.214 9.93975 12.2173 9.74043 12.3128 9.58107C12.3594 9.50351 12.4259 9.43909 12.5055 9.39449C12.5708 9.35831 12.6416 9.34116 12.7115 9.34116C12.8615 9.34124 13.0071 9.42037 13.0847 9.56047C13.355 10.0474 13.865 10.9659 13.9008 11.03C13.9085 11.0411 13.9315 11.0741 13.9513 11.1022C13.9701 11.1288 13.9904 11.1543 14.0114 11.1797C14.4665 11.7314 14.5214 12.4538 14.1544 13.0653L14.1545 13.0653ZM13.8176 11.3397C13.7926 11.3095 13.768 11.2785 13.7457 11.2467C13.6777 11.1502 13.676 11.1477 13.6709 11.1225C13.5914 10.991 13.3976 10.6421 12.8649 9.68232C12.8181 9.59808 12.712 9.56732 12.6274 9.61404C12.5858 9.63733 12.5524 9.66981 12.528 9.71048C12.4786 9.79283 12.4767 9.89572 12.5233 9.97926L12.9857 10.8123C13.0133 10.862 13.0041 10.924 12.9633 10.9635C12.9225 11.0031 12.8602 11.01 12.8113 10.9809L10.587 9.64653C10.4822 9.58368 10.344 9.6083 10.2792 9.7019C10.2419 9.75571 10.23 9.81989 10.2456 9.88258C10.2599 9.93985 10.2958 9.98814 10.3467 10.0187C10.3469 10.0187 10.347 10.0189 10.3471 10.019L11.8014 10.8915C11.8609 10.9272 11.8802 11.0042 11.8445 11.0638C11.8088 11.1232 11.7317 11.1426 11.6721 11.1068L9.88666 10.0357C9.836 10.0054 9.77638 9.99641 9.71911 10.0108C9.66169 10.0251 9.6134 10.061 9.58296 10.1119C9.55244 10.1626 9.54363 10.2222 9.55779 10.2794C9.5721 10.3367 9.60805 10.3851 9.65886 10.4156L10.0063 10.6239L11.4442 11.4867C11.5037 11.5224 11.523 11.5995 11.4873 11.659C11.4516 11.7184 11.3746 11.7378 11.3149 11.702L9.86031 10.8293C9.75569 10.7664 9.61946 10.8005 9.55653 10.9053C9.52601 10.9561 9.5172 11.0157 9.53136 11.0729C9.54567 11.1302 9.58162 11.1785 9.63251 11.2091L9.98915 11.423L11.0871 12.0818C11.1466 12.1175 11.1659 12.1946 11.1302 12.2541C11.0944 12.3135 11.0174 12.333 10.9578 12.2972L9.85984 11.6384C9.80918 11.608 9.74979 11.5991 9.69222 11.6135C9.63495 11.6278 9.5865 11.6637 9.55606 11.7144C9.52562 11.7652 9.51673 11.8248 9.53089 11.882C9.5452 11.9393 9.58115 11.9876 9.63204 12.0182L11.8579 13.3535C12.2191 13.5702 12.6357 13.6452 13.0304 13.5646C13.421 13.4849 13.7437 13.2617 13.9389 12.9362C14.2544 12.4106 14.209 11.8138 13.8177 11.3397L13.8176 11.3397Z" fill="#103E13"/>
</svg>
