<svg width="22" height="20" viewBox="0 0 22 20" fill="none" xmlns="http://www.w3.org/2000/svg">
<path d="M21.8404 13.5135C21.8404 16.8325 19.1499 19.5231 15.8308 19.5231L6.81645 19.5231C5.8945 19.5231 5.14711 18.7757 5.14711 17.8537L5.14711 6.50226C5.14711 4.65836 6.64188 3.16359 8.48578 3.16359L20.1711 3.1636C21.0931 3.1636 21.8404 3.91098 21.8404 4.83293L21.8404 13.5135Z" fill="#E8F5E9"/>
<path d="M8.14854 4.16521C6.95623 4.16521 5.98557 5.14473 5.98557 6.34213C5.98557 7.09962 6.37454 7.76845 6.96191 8.1583C6.25249 8.39551 5.63864 8.83884 5.18841 9.41882C4.93949 9.22736 4.66135 9.07338 4.36152 8.96304C4.8162 8.62548 5.11332 8.08325 5.11332 7.47382C5.11332 6.45828 4.29198 5.62694 3.2826 5.62694C2.27322 5.62694 1.45188 6.45828 1.45188 7.47382C1.45188 8.08359 1.74925 8.62608 2.20432 8.96364C0.999534 9.40822 0.139091 10.5722 0.139091 11.942V12.9043C0.139215 12.9777 0.168557 13.0479 0.220585 13.0996C0.272611 13.1514 0.34301 13.1802 0.416366 13.18H4.6381C4.64833 13.1811 4.65856 13.1817 4.6688 13.1816H11.6285C11.6388 13.1817 11.6491 13.1811 11.6592 13.18H15.8813C16.033 13.1794 16.156 13.0562 16.1563 12.9043V11.942C16.1563 10.5722 15.2974 9.40822 14.0932 8.96351C14.5483 8.62608 14.8457 8.08347 14.8457 7.47369C14.8457 6.45815 14.0243 5.62681 13.0149 5.62681C12.0056 5.62681 11.1842 6.45815 11.1842 7.47369C11.1842 8.08312 11.4815 8.62545 11.9361 8.96291C11.6357 9.0735 11.3574 9.22798 11.1081 9.41993C10.6581 8.8396 10.0451 8.39565 9.33575 8.1583C9.92296 7.76845 10.3121 7.09962 10.3121 6.34213C10.3121 5.14473 9.34093 4.16521 8.14861 4.16521H8.14854ZM8.14854 4.71754C9.0403 4.71754 9.75918 5.44126 9.75918 6.34213C9.75918 7.23597 9.0515 7.95264 8.16963 7.96413C8.1626 7.96413 8.15569 7.96315 8.14854 7.96315C8.14139 7.96315 8.13461 7.96413 8.12746 7.96413C7.24559 7.95279 6.53838 7.236 6.53838 6.34213C6.53838 5.44113 7.25667 4.71754 8.14842 4.71754H8.14854ZM3.28263 6.17924C3.99019 6.17924 4.56102 6.75351 4.56102 7.47379C4.56102 8.18923 3.99757 8.76104 3.29668 8.76881C3.29199 8.76881 3.28743 8.76831 3.28262 8.76831C3.27794 8.76831 3.27338 8.76881 3.26857 8.76881C2.56767 8.76104 2.00423 8.18911 2.00423 7.47379C2.00423 6.75354 2.57506 6.17924 3.28261 6.17924H3.28263ZM13.0148 6.17924C13.7223 6.17924 14.2932 6.75351 14.2932 7.47379C14.2932 8.18923 13.7297 8.76104 13.0288 8.76881C13.0241 8.76881 13.0196 8.76831 13.0148 8.76831C13.0101 8.76831 13.0055 8.76881 13.0007 8.76881C12.2998 8.76104 11.7364 8.18911 11.7364 7.47379C11.7364 6.75354 12.3072 6.17924 13.0147 6.17924H13.0148ZM8.1274 8.51644C8.13442 8.51656 8.14133 8.51742 8.14848 8.51742C8.15551 8.51742 8.16241 8.51644 8.16956 8.51644C9.93814 8.52778 11.3535 9.95535 11.3535 11.7424L11.3534 12.6291H4.9438V11.7424C4.9438 9.95519 6.35879 8.5278 8.12714 8.51644H8.1274ZM3.26149 9.32177C3.26851 9.32189 3.27542 9.32276 3.28257 9.32276C3.28972 9.32276 3.2965 9.32177 3.30365 9.32177C3.90185 9.32658 4.44777 9.53284 4.88248 9.87792C4.57142 10.4283 4.39153 11.0636 4.39153 11.7425V12.6271H0.691203V11.942C0.691203 10.4897 1.83312 9.3331 3.26142 9.32165L3.26149 9.32177ZM12.9936 9.32177C13.0008 9.32189 13.0076 9.32276 13.0147 9.32276C13.0219 9.32276 13.0286 9.32177 13.0358 9.32177C14.4641 9.33311 15.606 10.4898 15.606 11.9421V12.6271H11.9038L11.9037 11.7425C11.9037 11.064 11.7243 10.4292 11.4138 9.8789C11.8486 9.53333 12.395 9.32657 12.9937 9.32177H12.9936Z" fill="#103E13"/>
</svg>
