
<svg width="148" height="145" viewBox="0 0 148 145" fill="none" xmlns="http://www.w3.org/2000/svg">
<path d="M73.7834 127.201C105.354 127.201 130.947 125.707 130.947 123.864C130.947 122.021 105.354 120.527 73.7834 120.527C42.2127 120.527 16.6195 122.021 16.6195 123.864C16.6195 125.707 42.2127 127.201 73.7834 127.201Z" fill="#F5F5F5"/>
<path d="M103.045 49.329L100.12 48.1497C100.12 48.1497 96.2609 55.1872 95.1553 55.5439C93.6517 56.0274 90.5384 57.3718 88.6928 57.6077C88.4422 57.9025 88.0323 58.8194 88.0707 59.1526C90.5502 59.981 95.9985 58.8813 97.1661 58.0145C99.8224 56.0481 103.045 49.329 103.045 49.329Z" fill="#E58A7B"/>
<path d="M103.944 47.728C104.49 49.7417 101.535 53.7926 101.535 53.7926L97.6643 51.6227C97.6643 51.6227 98.3896 49.9569 99.274 48.2617C100.692 45.5227 103.322 45.4313 103.944 47.728Z" fill="#4CAF4F"/>
<path opacity="0.2" d="M103.944 47.728C104.49 49.7417 101.535 53.7926 101.535 53.7926L97.6643 51.6227C97.6643 51.6227 98.3896 49.9569 99.274 48.2617C100.692 45.5227 103.322 45.4313 103.944 47.728Z" fill="black"/>
<path opacity="0.2" d="M99.2004 52.4895L100.725 53.3445L100.993 48.6656C100.105 49.3467 99.4804 51.3987 99.2004 52.4895Z" fill="black"/>
<path d="M101.397 46.2126C101.397 46.2126 98.3837 52.917 100.141 65.3999H112.013C112.202 63.5779 111.577 54.6859 113.838 46.1006C112.536 45.8461 111.218 45.6777 109.894 45.5965C108.214 45.4991 106.529 45.4991 104.849 45.5965C103.685 45.7147 102.53 45.9207 101.397 46.2126Z" fill="#4CAF4F"/>
<path opacity="0.2" d="M101.397 46.2126C101.397 46.2126 98.3837 52.917 100.141 65.3999H112.013C112.202 63.5779 111.577 54.6859 113.838 46.1006C112.536 45.8461 111.218 45.6777 109.894 45.5965C108.214 45.4991 106.529 45.4991 104.849 45.5965C103.685 45.7147 102.53 45.9207 101.397 46.2126Z" fill="black"/>
<g style="mix-blend-mode:multiply">
<path d="M98.6431 124.129C98.6254 124.448 103.127 124.704 108.697 124.704C114.266 124.704 118.8 124.448 118.818 124.129C118.836 123.811 114.337 123.557 108.764 123.557C103.192 123.557 98.6637 123.814 98.6431 124.129Z" fill="#E8ECF1"/>
</g>
<path d="M106.568 115.763L104.462 116.578L106.276 121.264L108.382 120.449L106.568 115.763Z" fill="#E58A7B"/>
<path d="M115.958 121.862H113.738L112.924 116.723H115.145L115.958 121.862Z" fill="#E58A7B"/>
<path d="M113.585 121.606H116.079C116.122 121.606 116.164 121.621 116.197 121.649C116.23 121.677 116.252 121.716 116.259 121.759L116.58 123.731C116.587 123.781 116.583 123.831 116.569 123.879C116.554 123.927 116.53 123.971 116.497 124.008C116.464 124.046 116.423 124.076 116.377 124.096C116.332 124.117 116.282 124.127 116.232 124.126C115.363 124.112 114.944 124.059 113.847 124.059C113.172 124.059 111.784 124.129 110.846 124.129C109.908 124.129 109.847 123.209 110.233 123.124C111.966 122.75 112.639 122.239 113.216 121.744C113.318 121.655 113.449 121.605 113.585 121.606Z" fill="#263238"/>
<path d="M106.214 120.845L108.573 120.155C108.615 120.143 108.66 120.146 108.7 120.163C108.74 120.18 108.773 120.211 108.794 120.249L109.678 122.018C109.699 122.063 109.709 122.112 109.709 122.161C109.709 122.211 109.698 122.259 109.677 122.304C109.656 122.349 109.625 122.388 109.587 122.42C109.549 122.451 109.505 122.474 109.457 122.487C108.599 122.723 108.024 122.867 106.951 123.18C106.211 123.395 105.457 123.746 104.725 123.979C104.218 124.141 103.027 124.147 102.411 124.147C101.5 124.147 101.297 123.186 101.689 123.142C102.676 123.033 102.809 123.083 103.354 122.808C104.247 122.418 105.056 121.86 105.737 121.163C105.865 121.017 106.03 120.907 106.214 120.845Z" fill="#263238"/>
<path d="M89.0642 57.5959L86.6231 56.5728L85.6177 59.2793C86.6183 59.4318 87.6362 59.4318 88.6367 59.2793L89.0642 57.5959Z" fill="#E58A7B"/>
<path d="M84.807 56.5021L84.7421 58.3005L85.6177 59.2734L86.6231 56.5669L84.807 56.5021Z" fill="#E58A7B"/>
<path d="M106.857 116.161L104.745 116.976L105.68 119.399L107.793 118.584L106.857 116.161Z" fill="#CF6F64"/>
<path d="M115.145 116.723H112.924L113.346 119.374H115.566L115.145 116.723Z" fill="#CF6F64"/>
<path opacity="0.2" d="M99.7635 62.0242C99.8077 62.5578 99.8578 63.1032 99.9227 63.6634L108.75 60.7977C110.128 60.3892 111.326 59.5229 112.146 58.3418C112.182 57.5546 112.226 56.7262 112.294 55.8623C112.323 55.4437 112.358 55.0132 112.397 54.5769C112.435 54.1405 112.488 53.657 112.544 53.1912L99.7635 62.0242Z" fill="black"/>
<path d="M102.647 52.3539L102.352 52.3185C102.526 50.8444 103.626 49.6828 104.784 49.7122V50.0071C103.77 49.9864 102.803 51.0331 102.647 52.3539Z" fill="white"/>
<path d="M104.218 55.0751H104.168V54.7803C105.182 54.8186 106.135 53.7602 106.291 52.4423L106.586 52.4777C106.429 53.9194 105.365 55.0751 104.218 55.0751Z" fill="white"/>
<path d="M109.729 39.9152C109.313 41.5397 108.823 44.5144 109.894 45.5965C109.894 45.5965 109.145 47.2445 106.129 47.2445C103.372 47.2445 104.849 45.5965 104.849 45.5965C106.683 45.166 106.715 43.8275 106.474 42.5598L109.729 39.9152Z" fill="#E58A7B"/>
<path d="M108.402 40.9942L106.477 42.5598C106.536 42.8511 106.571 43.147 106.58 43.4442C107.143 44.0044 108.272 42.5863 108.387 41.861C108.446 41.5755 108.451 41.2816 108.402 40.9942Z" fill="#CF6F64"/>
<path d="M103.166 39.8945C103.3 40.1267 103.48 40.3288 103.696 40.4881C103.911 40.6474 104.157 40.7604 104.419 40.8203C105.126 40.9765 105.48 40.325 105.286 39.6705C105.112 39.0808 104.531 38.2877 103.811 38.4233C103.657 38.4551 103.513 38.5233 103.391 38.6222C103.268 38.7212 103.172 38.848 103.108 38.9921C103.045 39.1361 103.017 39.2933 103.027 39.4503C103.037 39.6073 103.085 39.7596 103.166 39.8945Z" fill="#CF6F64"/>
<path d="M104.336 34.6968C103.234 35.2009 102.844 39.582 104.23 40.2306C105.616 40.8793 106.424 33.7386 104.336 34.6968Z" fill="#263238"/>
<path d="M110.065 37.4711C109.799 39.6705 109.77 40.9647 108.591 42.091C108.225 42.4647 107.763 42.7302 107.257 42.8581C106.75 42.986 106.218 42.9714 105.719 42.8158C105.22 42.6603 104.773 42.3698 104.429 41.9766C104.084 41.5833 103.856 41.1026 103.767 40.5874C103.41 38.612 103.903 35.3483 106.108 34.4727C106.571 34.2683 107.081 34.1916 107.584 34.2505C108.087 34.3093 108.565 34.5017 108.969 34.8076C109.372 35.1134 109.687 35.5217 109.88 35.99C110.072 36.4584 110.136 36.9697 110.065 37.4711Z" fill="#E58A7B"/>
<path d="M106.441 35.8348C108.075 35.4191 109.275 35.136 108.844 36.4952C108.275 38.3113 107.591 40.0685 108.508 40.1481C109.068 40.1982 111.545 39.1486 111.229 38.0843C110.955 37.1585 112.114 36.905 112.32 36.4362C113.084 34.738 110.899 34.9621 111.288 33.9302C111.677 32.8983 109.519 31.2355 108.34 32.0639C106.421 33.4024 103.127 33.3818 104.858 31.1795C106.099 29.608 103.885 29.9294 103.885 29.9294C103.885 29.9294 105.224 30.7225 102.971 31.949C100.589 33.258 102.774 36.7753 106.441 35.8348Z" fill="#263238"/>
<path d="M110.931 39.8945C110.609 40.3611 110.125 40.6911 109.572 40.8203C108.844 40.9765 108.564 40.325 108.838 39.6705C109.083 39.0808 109.755 38.2877 110.451 38.4233C111.147 38.559 111.306 39.3167 110.931 39.8945Z" fill="#E58A7B"/>
<path d="M100.141 65.3999C100.141 65.3999 98.1478 83.2369 97.9915 90.0061C97.8323 97.0466 104.746 119.014 104.746 119.014L108.284 117.54C108.284 117.54 104.156 97.4682 104.746 90.5545C105.371 83.0158 107.954 65.4117 107.954 65.4117L100.141 65.3999Z" fill="#4CAF4F"/>
<path opacity="0.2" d="M105.094 70.297C103.505 73.5931 104.575 80.1117 105.436 83.974C105.763 81.2468 106.152 78.2868 106.521 75.5478C106.486 71.3377 106.158 68.0858 105.094 70.297Z" fill="black"/>
<path d="M108.128 116.372C108.145 116.372 108.546 117.499 108.546 117.499L104.466 119.215L103.823 118.018L108.128 116.372Z" fill="#4CAF4F"/>
<path d="M104.354 65.3999C104.354 65.3999 105.878 82.3642 106.886 88.7177C107.995 95.6786 112.341 118.861 112.341 118.861H116.406C116.406 118.861 113.971 96.2417 113.511 89.3487C113.01 81.8719 112.013 65.3999 112.013 65.3999H104.354Z" fill="#4CAF4F"/>
<path d="M116.468 117.802C116.486 117.802 116.604 118.937 116.604 118.937H112.134L111.816 117.634L116.468 117.802Z" fill="#4CAF4F"/>
<path opacity="0.2" d="M114.912 116.458C114.902 116.458 114.893 116.455 114.886 116.449C114.879 116.443 114.875 116.435 114.873 116.426C114.85 116.219 112.653 95.7877 112.241 89.5963C111.792 82.8802 110.89 67.9826 110.881 67.8323C110.881 67.8274 110.882 67.8225 110.883 67.8178C110.885 67.8132 110.887 67.8089 110.891 67.8053C110.894 67.8017 110.898 67.7989 110.902 67.7969C110.907 67.7949 110.912 67.7939 110.917 67.7939C110.926 67.7939 110.936 67.7976 110.943 67.8041C110.95 67.8107 110.954 67.8197 110.955 67.8293C110.955 67.9797 111.866 82.8655 112.314 89.5934C112.727 95.7847 114.923 116.201 114.944 116.423C114.945 116.427 114.945 116.432 114.944 116.437C114.942 116.442 114.94 116.447 114.937 116.45C114.934 116.454 114.93 116.458 114.926 116.46C114.921 116.462 114.917 116.464 114.912 116.464V116.458Z" fill="black"/>
<path d="M106.692 38.0843C106.692 38.2642 106.58 38.4086 106.462 38.4086C106.344 38.4086 106.258 38.2642 106.27 38.0843C106.282 37.9045 106.382 37.76 106.5 37.76C106.618 37.76 106.704 37.9074 106.692 38.0843Z" fill="#263238"/>
<path d="M104.669 38.0843C104.669 38.2642 104.554 38.4086 104.439 38.4086C104.324 38.4086 104.236 38.2642 104.245 38.0843C104.254 37.9045 104.36 37.76 104.478 37.76C104.596 37.76 104.681 37.9074 104.669 38.0843Z" fill="#263238"/>
<path d="M105.306 38.1757C105.06 38.7249 104.743 39.2393 104.363 39.7058C104.658 40.0007 105.209 39.865 105.209 39.865L105.306 38.1757Z" fill="#DF5753"/>
<path d="M105.359 40.6169C105.352 40.6169 105.346 40.6155 105.339 40.6128C105.333 40.6101 105.327 40.6061 105.323 40.6012C105.318 40.5962 105.314 40.5903 105.312 40.5839C105.31 40.5775 105.309 40.5706 105.309 40.5638C105.31 40.5495 105.316 40.536 105.327 40.5261C105.337 40.5162 105.351 40.5107 105.365 40.5107C105.591 40.5123 105.814 40.4633 106.018 40.3674C106.222 40.2715 106.402 40.1311 106.544 39.9565C106.555 39.9475 106.568 39.9426 106.581 39.9426C106.595 39.9426 106.608 39.9475 106.618 39.9565C106.628 39.9663 106.633 39.9796 106.633 39.9933C106.633 40.0071 106.628 40.0203 106.618 40.0302C106.465 40.2157 106.273 40.3647 106.055 40.4663C105.837 40.5678 105.6 40.6193 105.359 40.6169Z" fill="#263238"/>
<path d="M107.052 37.5418C107.037 37.5491 107.022 37.5529 107.006 37.5529C106.99 37.5529 106.974 37.5491 106.96 37.5418C106.85 37.4705 106.724 37.4262 106.594 37.4123C106.463 37.3985 106.331 37.4156 106.208 37.4622C106.196 37.4682 106.183 37.4717 106.17 37.4726C106.157 37.4735 106.143 37.4716 106.131 37.4672C106.118 37.4628 106.106 37.456 106.096 37.447C106.086 37.438 106.078 37.4272 106.073 37.4151C106.062 37.3888 106.062 37.3593 106.072 37.3329C106.082 37.3065 106.103 37.2852 106.129 37.2735C106.283 37.2106 106.45 37.1858 106.616 37.2012C106.782 37.2165 106.941 37.2717 107.081 37.362C107.092 37.3697 107.102 37.3795 107.109 37.391C107.117 37.4024 107.122 37.4152 107.125 37.4287C107.127 37.4421 107.127 37.4559 107.124 37.4693C107.121 37.4826 107.115 37.4953 107.108 37.5065C107.093 37.5234 107.073 37.5356 107.052 37.5418Z" fill="#263238"/>
<path d="M103.888 36.9522C103.872 36.9484 103.858 36.9402 103.847 36.9286C103.837 36.919 103.829 36.9075 103.824 36.8948C103.819 36.8822 103.816 36.8686 103.816 36.8549C103.816 36.8411 103.819 36.8275 103.824 36.8149C103.829 36.8022 103.837 36.7908 103.847 36.7812C103.96 36.6544 104.101 36.5555 104.258 36.4921C104.416 36.4287 104.586 36.4025 104.755 36.4156C104.768 36.4177 104.781 36.4225 104.793 36.4298C104.805 36.4372 104.815 36.4468 104.822 36.4581C104.83 36.4694 104.835 36.4822 104.838 36.4957C104.841 36.5092 104.84 36.5231 104.837 36.5365C104.831 36.5638 104.815 36.5878 104.792 36.6041C104.769 36.6204 104.741 36.6278 104.714 36.6249C104.58 36.6165 104.446 36.6386 104.321 36.6897C104.197 36.7408 104.086 36.8194 103.997 36.9197C103.984 36.9346 103.966 36.9456 103.947 36.9513C103.928 36.957 103.907 36.9573 103.888 36.9522Z" fill="#263238"/>
<path d="M114.979 49.0017L111.913 48.185C111.913 48.185 108.906 55.5881 107.842 56.0687C106.397 56.7291 102.738 59.0169 101.182 60.099C101.096 60.4675 101.164 61.4434 101.358 61.7116C104.012 61.2281 109.092 59.2734 110.153 58.2799C112.574 56.0127 114.979 49.0017 114.979 49.0017Z" fill="#E58A7B"/>
<path d="M112.839 121.995C112.689 122.007 112.54 121.966 112.417 121.88C112.379 121.845 112.351 121.802 112.335 121.753C112.319 121.705 112.316 121.653 112.326 121.603C112.328 121.571 112.338 121.541 112.356 121.515C112.373 121.489 112.398 121.468 112.426 121.455C112.674 121.328 113.367 121.768 113.446 121.818C113.455 121.823 113.462 121.831 113.466 121.841C113.469 121.85 113.47 121.861 113.467 121.871C113.464 121.881 113.459 121.891 113.452 121.898C113.445 121.906 113.436 121.912 113.426 121.915C113.234 121.962 113.037 121.989 112.839 121.995ZM112.544 121.535C112.522 121.53 112.499 121.53 112.476 121.535C112.465 121.541 112.456 121.549 112.449 121.56C112.443 121.571 112.44 121.584 112.441 121.597C112.433 121.631 112.434 121.667 112.445 121.7C112.455 121.734 112.474 121.764 112.5 121.788C112.615 121.892 112.904 121.903 113.284 121.83C113.058 121.68 112.803 121.58 112.535 121.535H112.544Z" fill="#4CAF4F"/>
<path d="M113.411 121.915C113.403 121.918 113.395 121.918 113.387 121.915C113.166 121.791 112.751 121.305 112.812 121.057C112.822 121.018 112.844 120.983 112.875 120.958C112.907 120.933 112.946 120.919 112.986 120.919C113.026 120.913 113.066 120.917 113.104 120.928C113.143 120.94 113.178 120.96 113.208 120.986C113.452 121.196 113.467 121.839 113.467 121.871C113.468 121.881 113.467 121.891 113.462 121.899C113.457 121.908 113.449 121.914 113.44 121.918C113.431 121.92 113.42 121.919 113.411 121.915ZM113.016 121.016H112.995C112.927 121.016 112.919 121.054 112.916 121.069C112.88 121.213 113.143 121.582 113.361 121.756C113.36 121.507 113.283 121.264 113.14 121.06C113.105 121.03 113.061 121.015 113.016 121.016Z" fill="#4CAF4F"/>
<path d="M105.011 121.626C104.831 121.689 104.635 121.689 104.454 121.626C104.413 121.604 104.378 121.572 104.353 121.533C104.328 121.494 104.313 121.449 104.31 121.402C104.306 121.373 104.31 121.343 104.321 121.316C104.331 121.289 104.349 121.265 104.372 121.246C104.607 121.034 105.572 121.246 105.681 121.287C105.691 121.29 105.7 121.296 105.707 121.305C105.713 121.313 105.716 121.324 105.716 121.334C105.716 121.345 105.714 121.356 105.708 121.366C105.702 121.375 105.694 121.383 105.684 121.387C105.466 121.485 105.242 121.565 105.011 121.626ZM104.531 121.275C104.497 121.282 104.466 121.297 104.439 121.32C104.43 121.327 104.423 121.336 104.419 121.347C104.414 121.358 104.413 121.37 104.416 121.382C104.418 121.412 104.427 121.442 104.444 121.469C104.46 121.495 104.483 121.517 104.51 121.532C104.666 121.614 105.029 121.55 105.498 121.352C105.182 121.272 104.855 121.246 104.531 121.275Z" fill="#4CAF4F"/>
<path d="M105.675 121.387H105.651C105.356 121.334 104.767 120.995 104.749 120.742C104.749 120.683 104.775 120.6 104.917 120.553C104.965 120.536 105.016 120.529 105.066 120.532C105.117 120.535 105.166 120.548 105.212 120.571C105.53 120.727 105.698 121.293 105.707 121.32C105.709 121.329 105.709 121.338 105.706 121.347C105.704 121.355 105.699 121.363 105.692 121.37C105.688 121.377 105.682 121.383 105.675 121.387ZM104.976 120.642H104.946C104.855 120.674 104.855 120.712 104.855 120.724C104.855 120.877 105.283 121.157 105.58 121.252C105.512 121.015 105.367 120.808 105.168 120.662C105.108 120.632 105.04 120.625 104.976 120.642Z" fill="#4CAF4F"/>
<path d="M101.432 59.925L98.3571 61.3402L98.0004 62.2247L99.1355 62.9883C99.1355 62.9883 101.258 62.7583 101.863 61.3933L101.432 59.925Z" fill="#E58A7B"/>
<path d="M101.562 61.7618C101.493 61.1709 101.298 60.6018 100.99 60.0931L101.476 59.7275C101.842 60.3137 102.076 60.9727 102.16 61.6586L101.562 61.7618Z" fill="#263238"/>
<path d="M102.087 60.3437C102.152 60.4459 102.184 60.5657 102.178 60.6867C102.173 60.8078 102.13 60.9242 102.056 61.0201C101.982 61.1161 101.88 61.1869 101.765 61.223C101.649 61.259 101.525 61.2586 101.41 61.2217C101.294 61.1848 101.193 61.1133 101.12 61.0168C101.046 60.9203 101.004 60.8036 101 60.6825C100.995 60.5614 101.028 60.4419 101.094 60.3401C101.16 60.2383 101.255 60.1593 101.367 60.1137C101.493 60.0495 101.64 60.0376 101.774 60.0807C101.909 60.1238 102.021 60.2183 102.087 60.3437Z" fill="#263238"/>
<path d="M96.2786 62.4841L96.6884 62.8969L99.448 61.7176L98.3571 61.3402L96.2786 62.4841Z" fill="#E58A7B"/>
<path opacity="0.2" d="M108.128 116.372C108.145 116.372 108.546 117.499 108.546 117.499L104.466 119.215L103.823 118.018L108.128 116.372Z" fill="black"/>
<path opacity="0.2" d="M116.468 117.802C116.486 117.802 116.604 118.937 116.604 118.937H112.134L111.816 117.634L116.468 117.802Z" fill="black"/>
<path d="M115.778 48.1526C116.589 50.7677 113.42 54.344 113.42 54.344L109.042 52.5573C109.561 51.0458 110.159 49.5627 110.834 48.1143C112.179 45.2162 114.959 45.5139 115.778 48.1526Z" fill="#4CAF4F"/>
<path opacity="0.2" d="M115.778 48.1526C116.589 50.7677 113.42 54.344 113.42 54.344L109.042 52.5573C109.561 51.0458 110.159 49.5627 110.834 48.1143C112.179 45.2162 114.959 45.5139 115.778 48.1526Z" fill="black"/>
<path d="M72.2739 21.9514H70.39V22.2551H72.2739V21.9514Z" fill="#4CAF4F"/>
<path d="M96.6614 33.9704L96.4334 39.0304L96.7367 39.0441L96.9647 33.9841L96.6614 33.9704Z" fill="#4CAF4F"/>
<path d="M96.0752 23.3135H61.2857L58.0485 95.7581H92.838L96.0752 23.3135Z" fill="#4CAF4F"/>
<path opacity="0.56" d="M95.0374 24.31H60.248L57.0108 96.7547H91.8002L95.0374 24.31Z" fill="#FAFAFA"/>
<path opacity="0.07" d="M93.9996 25.3036H59.2101L55.97 97.7482H90.7595L93.9996 25.3036Z" fill="#4CAF4F"/>
<path d="M90.0401 56.9001H60.3452L60.0976 62.4428H89.7925L90.0401 56.9001Z" fill="white"/>
<path d="M76.6757 52.8551H60.5251L60.416 55.3346H76.5666L76.6757 52.8551Z" fill="#4CAF4F"/>
<path d="M89.3709 71.8596H59.676L59.4283 77.4023H89.1232L89.3709 71.8596Z" fill="white"/>
<path opacity="0.47" d="M83.9254 84.8879H63.9568L63.6591 91.5303H83.6276L83.9254 84.8879Z" fill="#4CAF4F"/>
<path d="M82.5899 92.5622H62.6213C62.6126 92.5645 62.6035 92.5645 62.5948 92.5622C62.5918 92.5536 62.5918 92.5443 62.5948 92.5357L62.8896 85.8903C62.8896 85.8858 62.8905 85.8813 62.8923 85.8772C62.8941 85.8731 62.8968 85.8693 62.9001 85.8663C62.9034 85.8632 62.9074 85.8609 62.9116 85.8595C62.9159 85.858 62.9205 85.8575 62.925 85.8579H82.8935C82.8972 85.8561 82.9012 85.8551 82.9053 85.8551C82.9094 85.8551 82.9135 85.8561 82.9171 85.8579C82.9192 85.8615 82.9203 85.8656 82.9203 85.8697C82.9203 85.8738 82.9192 85.8779 82.9171 85.8815L82.6282 92.5416C82.6247 92.5485 82.6191 92.5542 82.6122 92.5579C82.6054 92.5616 82.5976 92.5631 82.5899 92.5622ZM62.6567 92.4915H82.5545L82.8493 85.9169H62.9515L62.6567 92.4915Z" fill="white"/>
<path d="M73.1879 67.8145H59.8558L59.7467 70.297H73.0758L73.1879 67.8145Z" fill="#4CAF4F"/>
<path d="M83.5451 38.9953C83.4689 40.6084 82.8952 42.1584 81.9029 43.4324C81.1683 44.3948 80.223 45.176 79.1396 45.7162C78.0561 46.2564 76.8632 46.5412 75.6526 46.5487C74.6743 46.5562 73.7048 46.3633 72.8038 45.9819C71.9029 45.6005 71.0896 45.0386 70.414 44.331C69.7384 43.6234 69.2148 42.7849 68.8755 41.8672C68.5362 40.9496 68.3884 39.9722 68.4412 38.9953C68.5448 36.9681 69.419 35.057 70.885 33.653C72.351 32.249 74.2979 31.458 76.3277 31.4418C77.3068 31.4327 78.2774 31.6244 79.1794 32.0052C80.0814 32.3859 80.8958 32.9476 81.5722 33.6555C82.2486 34.3634 82.7727 35.2025 83.112 36.121C83.4514 37.0394 83.5987 38.0176 83.5451 38.9953Z" fill="white"/>
<path d="M84.2556 33.0221C84.2364 33.451 84.0839 33.8633 83.8193 34.2014C83.6235 34.457 83.3719 34.6645 83.0838 34.8081C82.7956 34.9517 82.4784 35.0275 82.1565 35.0299C81.8445 35.0318 81.5369 34.9573 81.2604 34.8128C80.9839 34.6684 80.747 34.4585 80.5703 34.2014C80.3364 33.854 80.2206 33.4405 80.2401 33.0221C80.2686 32.4839 80.5013 31.9768 80.8909 31.6043C81.2804 31.2317 81.7973 31.0218 82.3363 31.0173C82.5963 31.0149 82.8541 31.0658 83.0937 31.1668C83.3333 31.2679 83.5496 31.4169 83.7294 31.6047C83.9093 31.7925 84.0487 32.0152 84.1392 32.259C84.2297 32.5027 84.2693 32.7624 84.2556 33.0221Z" fill="#4CAF4F"/>
<path d="M63.5441 59.6714C63.5299 59.909 63.4262 60.1324 63.2539 60.2965C63.0815 60.4607 62.8534 60.5533 62.6154 60.5559C62.5005 60.5573 62.3865 60.5351 62.2805 60.4906C62.1746 60.4462 62.0788 60.3805 61.9992 60.2976C61.9197 60.2147 61.8579 60.1164 61.8179 60.0087C61.7778 59.901 61.7602 59.7862 61.7663 59.6714C61.7791 59.4334 61.8824 59.2092 62.055 59.0448C62.2276 58.8803 62.4566 58.7881 62.695 58.787C62.8098 58.786 62.9236 58.8085 63.0293 58.8531C63.1351 58.8977 63.2307 58.9634 63.3102 59.0462C63.3897 59.129 63.4514 59.2272 63.4917 59.3347C63.5319 59.4422 63.5497 59.5568 63.5441 59.6714Z" fill="#263238"/>
<path d="M67.5184 59.6714C67.5049 59.9093 67.4014 60.133 67.2289 60.2973C67.0564 60.4616 66.8279 60.554 66.5897 60.5559C66.475 60.5569 66.3614 60.5344 66.2557 60.4898C66.1501 60.4451 66.0547 60.3794 65.9754 60.2965C65.8962 60.2137 65.8347 60.1155 65.7948 60.008C65.7549 59.9005 65.7375 59.7859 65.7435 59.6714C65.7563 59.4339 65.8591 59.2101 66.0311 59.0458C66.2032 58.8814 66.4314 58.7889 66.6693 58.787C66.7842 58.7856 66.8981 58.8078 67.0041 58.8522C67.1101 58.8967 67.2058 58.9623 67.2854 59.0452C67.365 59.1281 67.4267 59.2265 67.4668 59.3342C67.5069 59.4419 67.5244 59.5567 67.5184 59.6714Z" fill="#263238"/>
<path d="M71.4956 59.6714C71.4821 59.9093 71.3786 60.133 71.2061 60.2973C71.0336 60.4616 70.8051 60.554 70.5669 60.5559C70.4521 60.5569 70.3383 60.5343 70.2325 60.4898C70.1267 60.4452 70.0312 60.3795 69.9517 60.2967C69.8722 60.2139 69.8104 60.1157 69.7702 60.0082C69.73 59.9007 69.7121 59.7861 69.7178 59.6714C69.7312 59.4336 69.8347 59.2098 70.0072 59.0456C70.1797 58.8813 70.4083 58.7888 70.6465 58.787C70.7614 58.7856 70.8753 58.8078 70.9813 58.8522C71.0873 58.8967 71.183 58.9623 71.2626 59.0452C71.3422 59.1281 71.4039 59.2265 71.444 59.3342C71.4841 59.4419 71.5016 59.5567 71.4956 59.6714Z" fill="#263238"/>
<path d="M62.8748 74.6309C62.8607 74.8685 62.757 75.0919 62.5846 75.256C62.4123 75.4202 62.1841 75.5129 61.9461 75.5154C61.8313 75.5164 61.7176 75.4938 61.6118 75.4493C61.506 75.4047 61.4104 75.339 61.3309 75.2562C61.2514 75.1734 61.1897 75.0752 61.1495 74.9677C61.1093 74.8602 61.0914 74.7456 61.097 74.6309C61.1105 74.3931 61.214 74.1693 61.3865 74.0051C61.559 73.8408 61.7875 73.7483 62.0257 73.7465C62.1405 73.7455 62.2543 73.768 62.3601 73.8126C62.4659 73.8572 62.5614 73.9229 62.6409 74.0057C62.7204 74.0885 62.7822 74.1867 62.8224 74.2942C62.8626 74.4017 62.8805 74.5163 62.8748 74.6309Z" fill="#263238"/>
<path d="M66.8491 74.6309C66.8357 74.8683 66.7326 75.0916 66.5607 75.2558C66.3889 75.42 66.161 75.5128 65.9234 75.5154C65.8084 75.5168 65.6945 75.4946 65.5885 75.4501C65.4825 75.4057 65.3868 75.34 65.3072 75.2571C65.2276 75.1742 65.1659 75.0759 65.1258 74.9682C65.0857 74.8605 65.0682 74.7457 65.0743 74.6309C65.0877 74.3931 65.1912 74.1693 65.3637 74.0051C65.5362 73.8408 65.7648 73.7483 66.003 73.7465C66.1176 73.7455 66.2313 73.768 66.3369 73.8126C66.4425 73.8572 66.5379 73.923 66.6172 74.0058C66.6964 74.0887 66.7579 74.1869 66.7978 74.2944C66.8377 74.4019 66.8551 74.5164 66.8491 74.6309Z" fill="#263238"/>
<path d="M70.8352 74.6309C70.8217 74.8688 70.7182 75.0925 70.5457 75.2568C70.3732 75.4211 70.1446 75.5135 69.9065 75.5154C69.7918 75.5159 69.6782 75.4931 69.5726 75.4484C69.467 75.4037 69.3716 75.338 69.2922 75.2553C69.2128 75.1725 69.151 75.0745 69.1107 74.9672C69.0703 74.8599 69.0522 74.7455 69.0573 74.6309C69.0715 74.3934 69.1752 74.17 69.3476 74.0059C69.5199 73.8417 69.7481 73.749 69.986 73.7465C70.101 73.7451 70.2149 73.7673 70.3209 73.8117C70.4269 73.8562 70.5226 73.9219 70.6022 74.0048C70.6818 74.0876 70.7435 74.186 70.7836 74.2937C70.8237 74.4014 70.8412 74.5162 70.8352 74.6309Z" fill="#263238"/>
<path d="M74.8035 74.6309C74.7894 74.8685 74.6857 75.0919 74.5133 75.256C74.341 75.4202 74.1128 75.5129 73.8748 75.5154C73.7602 75.5159 73.6466 75.4931 73.541 75.4484C73.4354 75.4037 73.34 75.338 73.2606 75.2553C73.1812 75.1725 73.1194 75.0745 73.0791 74.9672C73.0387 74.8599 73.0205 74.7455 73.0257 74.6309C73.0399 74.3934 73.1436 74.17 73.3159 74.0059C73.4883 73.8417 73.7164 73.749 73.9544 73.7465C74.0692 73.7455 74.183 73.768 74.2888 73.8126C74.3946 73.8572 74.4901 73.9229 74.5696 74.0057C74.6491 74.0885 74.7109 74.1867 74.7511 74.2942C74.7913 74.4017 74.8092 74.5163 74.8035 74.6309Z" fill="#263238"/>
<path d="M78.7954 74.6309C78.7813 74.8685 78.6776 75.0919 78.5052 75.256C78.3329 75.4202 78.1047 75.5129 77.8667 75.5154C77.7518 75.5168 77.6379 75.4946 77.5319 75.4501C77.4259 75.4057 77.3302 75.34 77.2506 75.2571C77.171 75.1742 77.1093 75.0759 77.0692 74.9682C77.0291 74.8605 77.0116 74.7457 77.0176 74.6309C77.0311 74.3931 77.1346 74.1693 77.3071 74.0051C77.4796 73.8408 77.7082 73.7483 77.9463 73.7465C78.0611 73.7455 78.1749 73.768 78.2807 73.8126C78.3865 73.8572 78.482 73.9229 78.5615 74.0057C78.641 74.0885 78.7028 74.1867 78.743 74.2942C78.7832 74.4017 78.8011 74.5163 78.7954 74.6309Z" fill="#263238"/>
<path d="M78.1921 38.6019C79.4261 37.3951 79.4916 35.4609 78.3383 34.2816C77.1851 33.1023 75.2498 33.1246 74.0158 34.3313C72.7818 35.538 72.7164 37.4723 73.8696 38.6516C75.0228 39.8309 76.9581 39.8086 78.1921 38.6019Z" fill="#4CAF4F"/>
<path d="M81.9029 43.4324C81.1683 44.3948 80.223 45.176 79.1395 45.7162C78.0561 46.2565 76.8632 46.5412 75.6526 46.5487C74.4786 46.5587 73.3202 46.2796 72.2796 45.7362C71.2389 45.1927 70.348 44.4015 69.6853 43.4324C71.1182 42.0055 73.3854 41.0738 75.8973 41.0738C78.4092 41.0738 80.5968 42.0055 81.9029 43.4324Z" fill="#4CAF4F"/>
<path opacity="0.1" d="M78.1921 38.6019C79.4261 37.3951 79.4916 35.4609 78.3383 34.2816C77.1851 33.1023 75.2498 33.1246 74.0158 34.3313C72.7818 35.538 72.7164 37.4723 73.8696 38.6516C75.0228 39.8309 76.9581 39.8086 78.1921 38.6019Z" fill="white"/>
<path opacity="0.1" d="M81.9029 43.4324C81.1683 44.3948 80.223 45.176 79.1395 45.7162C78.0561 46.2565 76.8632 46.5412 75.6526 46.5487C74.4786 46.5587 73.3202 46.2796 72.2796 45.7362C71.2389 45.1927 70.348 44.4015 69.6853 43.4324C71.1182 42.0055 73.3854 41.0738 75.8973 41.0738C78.4092 41.0738 80.5968 42.0055 81.9029 43.4324Z" fill="white"/>
<path d="M38.5251 63.7784C38.245 64.3916 37.9502 65.0668 37.6937 65.7213C37.4372 66.3758 37.1748 67.0509 36.9478 67.7231C36.4843 69.0479 36.1313 70.4087 35.8923 71.7917L35.8275 72.2251C35.8213 72.2995 35.8283 72.3743 35.8481 72.4462C35.9177 72.6906 36.0273 72.9217 36.1724 73.1302C36.551 73.67 36.9902 74.1646 37.4814 74.6044C37.9993 75.0861 38.5426 75.5398 39.1089 75.9635C39.6749 76.3999 40.2705 76.8244 40.8572 77.2254L40.3059 78.2602C38.9049 77.6498 37.5752 76.8875 36.3405 75.9871C35.6817 75.5067 35.0872 74.9439 34.5715 74.3125C34.2658 73.9366 34.0274 73.5107 33.8669 73.0536C33.7735 72.768 33.7258 72.4695 33.7253 72.1691C33.7253 72.0984 33.7253 71.9952 33.7253 71.945V71.8006L33.7548 71.5058C33.9239 69.9697 34.2468 68.4546 34.7189 66.9831C34.9489 66.2579 35.1936 65.5355 35.4737 64.8309C35.7538 64.1263 36.0427 63.4364 36.3994 62.7199L38.5251 63.7784Z" fill="#E58A7B"/>
<path d="M40.4415 77.0426L42.5259 75.9871L41.9864 78.275C41.9864 78.275 40.5565 78.6759 39.8931 77.9801L40.4415 77.0426Z" fill="#E58A7B"/>
<path d="M44.4334 76.3615L43.8792 78.2543L41.9864 78.275L42.5259 75.9871L44.4334 76.3615Z" fill="#E58A7B"/>
<path d="M47.3758 52.7401C47.4873 53.1487 47.6425 53.544 47.8387 53.9194C47.7814 53.9844 47.7075 54.0327 47.625 54.0592C47.5425 54.0856 47.4544 54.0893 47.3699 54.0697L47.3758 52.7401Z" fill="#DF5753"/>
<path d="M47.3139 52.7578C47.436 52.7578 47.535 52.606 47.535 52.4187C47.535 52.2315 47.436 52.0797 47.3139 52.0797C47.1918 52.0797 47.0928 52.2315 47.0928 52.4187C47.0928 52.606 47.1918 52.7578 47.3139 52.7578Z" fill="#263238"/>
<path d="M47.249 52.0914L47.6972 51.9647C47.6972 51.9647 47.479 52.3126 47.249 52.0914Z" fill="#263238"/>
<path d="M41.6179 54.9041C41.8862 56.275 42.1544 58.7899 41.1933 59.7068C41.1933 59.7068 41.5707 61.0984 44.1209 61.0984C46.9247 61.0984 45.4594 59.7068 45.4594 59.7068C43.9293 59.3412 43.9676 58.2061 44.2359 57.1389L41.6179 54.9041Z" fill="#E58A7B"/>
<path d="M40.8719 51.7789C41.0135 54.0697 41.0253 55.0427 42.181 56.219C43.9234 57.988 46.7066 57.3158 47.252 55.0397C47.7443 52.9759 47.4318 49.5795 45.1882 48.6685C44.6957 48.4656 44.1596 48.3918 43.6306 48.4538C43.1016 48.5159 42.5972 48.7119 42.165 49.0233C41.7329 49.3348 41.3874 49.7512 41.1611 50.2334C40.9348 50.7156 40.8353 51.2476 40.8719 51.7789Z" fill="#E58A7B"/>
<path d="M41.099 49.2021C39.9491 49.6208 38.4161 49.3083 39.0175 52.855C39.6543 56.6111 38.6755 57.8465 38.6755 57.8465C38.6755 57.8465 43.036 58.7752 47.4879 57.7904C47.4879 57.7904 46.1287 55.4141 46.509 53.6629C46.9955 51.4517 46.6122 50.635 46.6122 50.635C46.6122 50.635 42.7146 48.6125 41.099 49.2021Z" fill="#263238"/>
<path d="M45.9636 52.973C45.9648 53.4086 46.0895 53.8349 46.3233 54.2024C46.6358 54.68 47.0043 54.4972 47.0957 53.9901C47.1783 53.545 47.1164 52.7578 46.7184 52.4511C46.3203 52.1445 45.9695 52.4452 45.9636 52.973Z" fill="#E58A7B"/>
<path d="M40.0995 49.5884C39.7693 48.6597 41.3437 47.2298 44.6752 47.8194C48.0067 48.4091 48.1512 51.1834 48.1512 51.1834L47.479 50.3815L47.5085 51.2247L44.0856 51.8821L40.0995 49.5884Z" fill="#263238"/>
<path d="M40.3825 59.8631C40.3629 59.7285 40.3966 59.5915 40.4764 59.4813C40.5563 59.3712 40.676 59.2966 40.81 59.2734C41.8478 59.1024 44.2064 58.7545 45.3916 58.9196C46.2761 59.0435 46.5061 59.5565 46.5444 59.9781C46.5504 60.0519 46.5405 60.1261 46.5155 60.1958C46.4904 60.2655 46.4507 60.329 46.399 60.3821C46.3473 60.4352 46.2849 60.4766 46.2159 60.5035C46.1469 60.5304 46.0729 60.5423 45.999 60.5382L40.8749 60.3083C40.7541 60.3022 40.6391 60.2545 40.5494 60.1734C40.4597 60.0923 40.4007 59.9827 40.3825 59.8631Z" fill="#4CAF4F"/>
<path opacity="0.6" d="M40.3825 59.8631C40.3629 59.7285 40.3966 59.5915 40.4764 59.4813C40.5563 59.3712 40.676 59.2966 40.81 59.2734C41.8478 59.1024 44.2064 58.7545 45.3916 58.9196C46.2761 59.0435 46.5061 59.5565 46.5444 59.9781C46.5504 60.0519 46.5405 60.1261 46.5155 60.1958C46.4904 60.2655 46.4507 60.329 46.399 60.3821C46.3473 60.4352 46.2849 60.4766 46.2159 60.5035C46.1469 60.5304 46.0729 60.5423 45.999 60.5382L40.8749 60.3083C40.7541 60.3022 40.6391 60.2545 40.5494 60.1734C40.4597 60.0923 40.4007 59.9827 40.3825 59.8631Z" fill="black"/>
<path d="M43.3455 111.369L45.2472 112.69L48.4283 108.377L46.5267 107.059L43.3455 111.369Z" fill="#E58A7B"/>
<path d="M38.9113 111.284L40.9191 112.428L43.7347 107.867L41.7269 106.723L38.9113 111.284Z" fill="#E58A7B"/>
<path d="M48.4254 108.377L46.7862 110.6L44.8845 109.282L46.5238 107.059L48.4254 108.377Z" fill="#CF6F64"/>
<path d="M41.724 106.723L43.7347 107.87L42.2842 110.219L40.2735 109.072L41.724 106.723Z" fill="#CF6F64"/>
<path d="M44.9494 74.2624C44.9494 74.2624 52.3731 83.6172 50.9786 92.5652C49.8553 99.7914 43.3396 109.577 43.3396 109.577L40.2764 108.055C42.4356 103.729 44.2781 99.2515 45.7896 94.6585C46.2558 93.2325 46.3918 91.7192 46.1875 90.233C45.9832 88.7468 45.4439 87.3263 44.6103 86.079C40.8484 80.5864 34.8221 83.856 38.876 74.2624H44.9494Z" fill="#4CAF4F"/>
<path opacity="0.6" d="M44.9494 74.2624C44.9494 74.2624 52.3731 83.6172 50.9786 92.5652C49.8553 99.7914 43.3396 109.577 43.3396 109.577L40.2764 108.055C42.4356 103.729 44.2781 99.2515 45.7896 94.6585C46.2558 93.2325 46.3918 91.7192 46.1875 90.233C45.9832 88.7468 45.4439 87.3263 44.6103 86.079C40.8484 80.5864 34.8221 83.856 38.876 74.2624H44.9494Z" fill="black"/>
<path opacity="0.4" d="M48.5905 80.2709L47.5114 79.1978C47.5114 79.2833 49.6018 92.1878 50.1885 95.8142C50.5347 94.7548 50.7998 93.6706 50.9815 92.5711C51.6714 88.1811 50.2297 83.6968 48.5905 80.2709Z" fill="black"/>
<path d="M48.2632 74.2624C48.2632 74.2624 57.2024 86.0201 57.4559 93.0694C57.6652 98.9659 47.7267 110.39 47.7267 110.39L44.8374 108.521C44.8374 108.521 50.6543 100.408 52.1196 93.7799C51.5535 87.2112 39.5836 74.2624 39.5836 74.2624H48.2632Z" fill="#4CAF4F"/>
<path opacity="0.6" d="M48.2632 74.2624C48.2632 74.2624 57.2024 86.0201 57.4559 93.0694C57.6652 98.9659 47.7267 110.39 47.7267 110.39L44.8374 108.521C44.8374 108.521 50.6543 100.408 52.1196 93.7799C51.5535 87.2112 39.5836 74.2624 39.5836 74.2624H48.2632Z" fill="black"/>
<path d="M37.2043 60.2316C36.2491 60.4586 35.3322 63.9317 35.3322 63.9317L39.0676 66.4259C39.0676 66.4259 40.3118 63.6781 39.8754 62.4752C39.4244 61.2222 38.4043 59.9456 37.2043 60.2316Z" fill="#4CAF4F"/>
<path opacity="0.2" d="M37.9355 62.4693L37.676 65.4972L39.0647 66.4288C39.4481 65.5656 39.732 64.6616 39.9108 63.7341L37.9355 62.4693Z" fill="black"/>
<path d="M49.3688 60.2994C49.3688 60.2994 50.4715 60.6856 48.2632 74.2594H38.8701C39.0293 70.4267 39.0322 68.0681 37.2043 60.2316C38.5195 59.9606 39.8527 59.7852 41.1933 59.7068C42.6135 59.605 44.0392 59.605 45.4594 59.7068C47.2932 59.8749 49.3688 60.2994 49.3688 60.2994Z" fill="#4CAF4F"/>
<path d="M50.324 62.4693C50.5363 63.059 50.7604 63.6928 50.9963 64.3031C51.2321 64.9134 51.4562 65.5414 51.695 66.1605L52.4173 68.012L52.6001 68.4749L52.6945 68.7049L52.7387 68.8199C52.7387 68.8405 52.7387 68.8405 52.7387 68.8376C52.6848 68.7616 52.6142 68.6991 52.5323 68.6548C52.4157 68.5861 52.2842 68.5467 52.149 68.5398C52.0367 68.5363 51.925 68.5574 51.8218 68.6017C51.6861 68.6636 51.6861 68.6901 51.6891 68.6872C51.7136 68.6675 51.7354 68.6447 51.754 68.6194C51.9172 68.4051 52.0584 68.175 52.1756 67.9324C52.3141 67.6612 52.4468 67.3723 52.5795 67.0804C52.8389 66.4907 53.0777 65.8805 53.3165 65.2643C53.5553 64.6481 53.7824 64.026 54.0035 63.398L54.6757 61.517L55.8108 61.8119C55.5867 63.1563 55.2978 64.4653 54.9499 65.7979C54.7818 66.4613 54.5843 67.1187 54.3602 67.7821C54.2482 68.1152 54.1244 68.4454 53.9828 68.7845C53.8353 69.1525 53.6537 69.5058 53.4404 69.84C53.3619 69.9524 53.2752 70.0589 53.1809 70.1584C53.0304 70.321 52.8476 70.4505 52.6443 70.5387C52.4639 70.6162 52.2685 70.6524 52.0724 70.6448C51.8526 70.6367 51.6386 70.5727 51.4503 70.4591C51.2282 70.3205 51.0438 70.1291 50.9137 69.9019C50.8695 69.8252 50.8312 69.7486 50.8046 69.6926L50.7486 69.5805L50.6366 69.3506L50.4125 68.8936C50.1177 68.2803 49.8228 67.6612 49.5663 67.0391C49.3099 66.417 49.0386 65.7861 48.7851 65.1522C48.5315 64.5184 48.3045 63.8845 48.0893 63.2005L50.324 62.4693Z" fill="#E58A7B"/>
<path d="M49.3688 60.2994C50.498 60.5677 51.7687 63.9051 51.7687 63.9051L48.4106 66.762C48.4106 66.762 46.2378 63.1238 46.6771 61.9239C47.134 60.6738 47.8947 59.9486 49.3688 60.2994Z" fill="#4CAF4F"/>
<path d="M55.2093 60.4616L56.3886 59.4768L57.2083 60.7534L56.6039 61.8178C56.6039 61.8178 55.6427 62.7022 54.7936 62.2511C54.6589 61.9482 54.6265 61.6096 54.7016 61.2867C54.7766 60.9637 54.9549 60.6741 55.2093 60.4616Z" fill="#E58A7B"/>
<path d="M58.5173 59.4798L58.4288 59.8011L56.5626 60.1137L56.3798 59.4768L58.5173 59.4798Z" fill="#E58A7B"/>
<path d="M47.9566 110.541L44.5897 108.365L45.1941 107.315L48.9767 109.641L47.9566 110.541Z" fill="#4CAF4F"/>
<path d="M42.237 112.274C41.9416 112.238 41.6577 112.138 41.4056 111.979C41.3952 111.976 41.3862 111.969 41.3798 111.96C41.3734 111.951 41.37 111.94 41.37 111.929C41.37 111.918 41.3734 111.908 41.3798 111.899C41.3862 111.89 41.3952 111.883 41.4056 111.879C41.497 111.85 42.2901 111.605 42.52 111.794C42.5459 111.815 42.5655 111.843 42.5769 111.875C42.5883 111.906 42.5911 111.941 42.5849 111.974C42.5808 112.027 42.5632 112.078 42.5338 112.122C42.5044 112.167 42.4641 112.203 42.4168 112.227C42.3616 112.257 42.2999 112.273 42.237 112.274ZM41.5736 111.95C41.9422 112.139 42.237 112.206 42.3785 112.136C42.4093 112.119 42.4353 112.094 42.4538 112.064C42.4724 112.034 42.483 112 42.4847 111.965C42.4847 111.918 42.4847 111.897 42.4581 111.885C42.3343 111.785 41.892 111.862 41.5677 111.95H41.5736Z" fill="#263238"/>
<path d="M41.4262 112C41.4107 112 41.3958 111.994 41.3849 111.982C41.3805 111.974 41.3782 111.965 41.3782 111.956C41.3782 111.947 41.3805 111.938 41.3849 111.929C41.3849 111.903 41.5766 111.263 41.8773 111.119C41.9157 111.101 41.9574 111.092 41.9996 111.092C42.0419 111.092 42.0836 111.101 42.122 111.119C42.1634 111.132 42.1992 111.158 42.2238 111.194C42.2484 111.23 42.2603 111.273 42.2576 111.316C42.237 111.581 41.6974 111.947 41.4498 112.009L41.4262 112ZM41.9982 111.195C41.9695 111.196 41.9413 111.203 41.9156 111.216C41.7328 111.304 41.5825 111.649 41.5088 111.859C41.7682 111.75 42.1249 111.461 42.1367 111.298C42.1367 111.272 42.1367 111.239 42.0689 111.21C42.0469 111.198 42.0229 111.19 41.9982 111.186V111.195Z" fill="#263238"/>
<path d="M46.4442 113.548C46.111 113.548 45.6481 113.12 45.3946 112.858C45.3881 112.849 45.3846 112.838 45.3846 112.827C45.3846 112.816 45.3881 112.805 45.3946 112.796C45.4004 112.787 45.4087 112.779 45.4185 112.774C45.4284 112.769 45.4395 112.766 45.4506 112.767C45.5685 112.767 46.5916 112.92 46.736 113.209C46.7513 113.235 46.7594 113.264 46.7594 113.294C46.7594 113.325 46.7513 113.354 46.736 113.38C46.7144 113.425 46.6816 113.464 46.6409 113.493C46.6002 113.521 46.5528 113.539 46.5031 113.545L46.4442 113.548ZM45.5892 112.899C45.9606 113.259 46.2879 113.46 46.4736 113.436C46.5062 113.432 46.5372 113.42 46.5639 113.4C46.5906 113.381 46.6123 113.356 46.627 113.327C46.6336 113.317 46.6371 113.305 46.6371 113.293C46.6371 113.281 46.6336 113.269 46.627 113.259C46.5503 113.1 46.0049 112.964 45.5892 112.899Z" fill="#263238"/>
<path d="M45.6216 112.885C45.5554 112.886 45.4892 112.882 45.4241 112.87C45.415 112.868 45.4064 112.865 45.3991 112.859C45.3919 112.853 45.3863 112.846 45.3828 112.837C45.3784 112.829 45.3761 112.819 45.3761 112.809C45.3761 112.8 45.3784 112.79 45.3828 112.781C45.4005 112.761 45.7985 112.28 46.1759 112.248C46.2827 112.239 46.3885 112.273 46.4707 112.342C46.5857 112.442 46.5798 112.531 46.5503 112.587C46.4766 112.787 45.9666 112.885 45.6216 112.885ZM45.545 112.775C45.8752 112.793 46.4029 112.684 46.4707 112.54C46.4707 112.54 46.4943 112.492 46.4176 112.428C46.3871 112.401 46.3515 112.381 46.313 112.369C46.2744 112.357 46.2338 112.353 46.1936 112.357C45.9394 112.428 45.713 112.575 45.545 112.778V112.775Z" fill="#263238"/>
<path d="M41.5058 111.682L39.0057 110.974C38.9626 110.961 38.9162 110.964 38.8754 110.983C38.8346 111.002 38.8023 111.036 38.7846 111.077L37.9414 112.973C37.9216 113.022 37.9123 113.074 37.9141 113.126C37.9159 113.179 37.9288 113.23 37.9519 113.277C37.975 113.324 38.0078 113.366 38.0482 113.399C38.0886 113.433 38.1356 113.457 38.1861 113.471C39.0706 113.701 39.4951 113.766 40.5948 114.082C41.2729 114.27 42.2399 114.621 43.1745 114.886C44.1091 115.152 44.4217 114.241 44.059 114.046C42.4198 113.179 42.2901 112.572 41.8419 111.923C41.7617 111.806 41.6427 111.72 41.5058 111.682Z" fill="#4CAF4F"/>
<path d="M45.4624 112.513L43.3278 111.039C43.2916 111.013 43.247 111 43.2025 111.005C43.1579 111.009 43.1165 111.03 43.0861 111.063L41.6709 112.584C41.6364 112.623 41.6107 112.669 41.5955 112.719C41.5802 112.769 41.5758 112.822 41.5825 112.874C41.5892 112.926 41.6068 112.976 41.6343 113.02C41.6617 113.065 41.6983 113.103 41.7417 113.132C42.4935 113.636 42.8827 113.84 43.8231 114.491C44.4128 114.892 45.5538 115.783 46.3498 116.337C47.1458 116.891 47.7384 116.131 47.4554 115.83C46.1877 114.477 45.9105 113.628 45.7012 112.858C45.6649 112.718 45.5802 112.596 45.4624 112.513Z" fill="#4CAF4F"/>
<path d="M43.7318 109.771L39.8843 107.858L40.2823 106.814L44.3922 108.831L43.7318 109.771Z" fill="#4CAF4F"/>
<path d="M38.7286 73.7081L38.4042 74.5572C38.3718 74.6221 38.4485 74.6899 38.5576 74.6899H48.3104C48.3959 74.6899 48.4667 74.6486 48.4726 74.5955L48.5551 73.7523C48.5551 73.6963 48.4873 73.6462 48.3959 73.6462H38.8819C38.8532 73.6435 38.8243 73.6477 38.7977 73.6585C38.771 73.6693 38.7473 73.6863 38.7286 73.7081Z" fill="#4CAF4F"/>
<path opacity="0.4" d="M38.7286 73.7081L38.4042 74.5572C38.3718 74.6221 38.4485 74.6899 38.5576 74.6899H48.3104C48.3959 74.6899 48.4667 74.6486 48.4726 74.5955L48.5551 73.7523C48.5551 73.6963 48.4873 73.6462 48.3959 73.6462H38.8819C38.8532 73.6435 38.8243 73.6477 38.7977 73.6585C38.771 73.6693 38.7473 73.6863 38.7286 73.7081Z" fill="white"/>
<path d="M40.2646 74.7724H40.0081C39.958 74.7724 39.9197 74.7459 39.9226 74.7134L40.0435 73.6196C40.0435 73.5902 40.0907 73.5636 40.1408 73.5636H40.3973C40.4474 73.5636 40.4857 73.5902 40.4828 73.6196L40.3619 74.7134C40.359 74.7459 40.3147 74.7724 40.2646 74.7724Z" fill="#4CAF4F"/>
<path d="M46.2791 74.7724H46.0255C45.9754 74.7724 45.9371 74.7459 45.94 74.7134L46.0579 73.6196C46.0579 73.5902 46.1081 73.5636 46.1582 73.5636H46.4117C46.4619 73.5636 46.5031 73.5902 46.4972 73.6196L46.3793 74.7134C46.3646 74.7459 46.3321 74.7724 46.2791 74.7724Z" fill="#4CAF4F"/>
<g style="mix-blend-mode:multiply">
<path d="M40.0405 124.701C44.4027 124.701 47.9389 124.445 47.9389 124.129C47.9389 123.813 44.4027 123.557 40.0405 123.557C35.6784 123.557 32.1421 123.813 32.1421 124.129C32.1421 124.445 35.6784 124.701 40.0405 124.701Z" fill="#F5F5F5"/>
</g>
<path d="M44.8521 123.321C43.4546 122.915 41.9038 122.393 40.9663 121.847C40.9398 121.83 40.9103 121.821 40.8837 121.806V115.479H43.7111C43.9258 115.466 44.1274 115.372 44.2749 115.216C44.4224 115.059 44.5045 114.852 44.5045 114.637C44.5045 114.422 44.4224 114.215 44.2749 114.059C44.1274 113.903 43.9258 113.808 43.7111 113.796H40.8985V84.9557H39.2003V113.796H36.3906C36.2759 113.789 36.161 113.806 36.0529 113.845C35.9449 113.884 35.846 113.945 35.7624 114.024C35.6788 114.103 35.6121 114.198 35.5666 114.303C35.521 114.409 35.4976 114.522 35.4976 114.637C35.4976 114.752 35.521 114.866 35.5666 114.972C35.6121 115.077 35.6788 115.172 35.7624 115.251C35.846 115.33 35.9449 115.391 36.0529 115.43C36.161 115.469 36.2759 115.486 36.3906 115.479H39.2003V121.797C39.1737 121.797 39.1472 121.821 39.1207 121.838C38.1684 122.393 36.6294 122.915 35.2319 123.313C35.1375 123.341 35.0565 123.403 35.0034 123.486C34.9504 123.569 34.9289 123.668 34.9427 123.766C34.9566 123.863 35.005 123.953 35.0792 124.018C35.1533 124.083 35.2483 124.119 35.3469 124.12H44.7371C44.8314 124.114 44.9205 124.075 44.9898 124.011C45.059 123.947 45.1041 123.861 45.1176 123.767C45.1311 123.674 45.112 123.579 45.0637 123.497C45.0154 123.416 44.9407 123.354 44.8521 123.321Z" fill="#E0E0E0"/>
<path d="M45.2855 82.0193H34.8015C33.958 82.0193 33.2743 82.703 33.2743 83.5465V86.6628C33.2743 87.5062 33.958 88.19 34.8015 88.19H45.2855C46.1289 88.19 46.8127 87.5062 46.8127 86.6628V83.5465C46.8127 82.703 46.1289 82.0193 45.2855 82.0193Z" fill="#4CAF4F"/>
<path d="M34.7042 88.1929V88.7295C34.7042 89.1717 35.1847 89.5314 35.7744 89.5314H44.3243C44.914 89.5314 45.3946 89.1717 45.3946 88.7295V88.1929H34.7042Z" fill="#4CAF4F"/>
<path opacity="0.3" d="M34.7042 88.1929V88.7295C34.7042 89.1717 35.1847 89.5314 35.7744 89.5314H44.3243C44.914 89.5314 45.3946 89.1717 45.3946 88.7295V88.1929H34.7042Z" fill="white"/>
</svg>
